<svg width="0" height="0" class="hidden">
<symbol xmlns="http://www.w3.org/2000/svg" viewBox="0 0 24 24" id="icons-american-express-mini">
    <title>3655D99F-33AE-46B4-987D-5D10B6B2D614@1x</title>
    <g transform="translate(0 4)" fill="none">
      <rect fill="#016FD0" width="24" height="16" rx="2"></rect>
      <path fill="#FFFFFE" d="M13.764 13.394V7.692l10.148.01v1.574l-1.173 1.254 1.173 1.265v1.608h-1.873l-.995-1.098-.988 1.102z"></path>
      <path fill="#016FD0" d="M14.442 12.769v-4.45h3.772v1.026h-2.55v.695h2.49v1.008h-2.49v.684h2.55v1.037z"></path>
      <path fill="#016FD0" d="M18.195 12.769l2.088-2.227-2.088-2.222h1.616l1.275 1.41 1.28-1.41h1.546v.035l-2.043 2.187 2.043 2.164v.063H22.35l-1.298-1.424-1.285 1.424z"></path>
      <path fill="#FFFFFE" d="M14.237 2.632h2.446l.86 1.95v-1.95h3.02l.52 1.462.523-1.462h2.306v5.701H11.725z"></path>
      <g fill="#016FD0">
        <path d="M14.7 3.251l-1.974 4.446h1.354l.373-.89h2.018l.372.89h1.387L16.265 3.25H14.7zm.17 2.558l.592-1.415.592 1.415H14.87z"></path>
        <path d="M18.212 7.696V3.25l1.903.006.98 2.733.985-2.74h1.832v4.446l-1.179.01V4.653L21.62 7.696h-1.075l-1.136-3.054v3.054z"></path>
      </g>
    </g>
  </symbol>
<symbol xmlns="http://www.w3.org/2000/svg" viewBox="0 0 24 24" id="icons-amex-mini">
    <title>3655D99F-33AE-46B4-987D-5D10B6B2D614@1x</title>
    <g transform="translate(0 4)" fill="none">
      <rect fill="#016FD0" width="24" height="16" rx="2"></rect>
      <path fill="#FFFFFE" d="M13.764 13.394V7.692l10.148.01v1.574l-1.173 1.254 1.173 1.265v1.608h-1.873l-.995-1.098-.988 1.102z"></path>
      <path fill="#016FD0" d="M14.442 12.769v-4.45h3.772v1.026h-2.55v.695h2.49v1.008h-2.49v.684h2.55v1.037z"></path>
      <path fill="#016FD0" d="M18.195 12.769l2.088-2.227-2.088-2.222h1.616l1.275 1.41 1.28-1.41h1.546v.035l-2.043 2.187 2.043 2.164v.063H22.35l-1.298-1.424-1.285 1.424z"></path>
      <path fill="#FFFFFE" d="M14.237 2.632h2.446l.86 1.95v-1.95h3.02l.52 1.462.523-1.462h2.306v5.701H11.725z"></path>
      <g fill="#016FD0">
        <path d="M14.7 3.251l-1.974 4.446h1.354l.373-.89h2.018l.372.89h1.387L16.265 3.25H14.7zm.17 2.558l.592-1.415.592 1.415H14.87z"></path>
        <path d="M18.212 7.696V3.25l1.903.006.98 2.733.985-2.74h1.832v4.446l-1.179.01V4.653L21.62 7.696h-1.075l-1.136-3.054v3.054z"></path>
      </g>
    </g>
  </symbol>
  <symbol xmlns="http://www.w3.org/2000/svg" viewBox="0 0 24 24" id="icons-maestro-mini">
    <title>F82282A1-140B-43D3-93B9-84CCD886386D@1x</title>
    <g transform="translate(0 4)" fill="none">
      <rect fill="#252525" width="24" height="16" rx="2"></rect>
      <circle fill="red" cx="9" cy="8" r="5"></circle>
      <circle fill="#00A1DF" cx="15" cy="8" r="5"></circle>
      <path d="M12 4c1.214.912 2 2.364 2 4a4.992 4.992 0 01-2 4 4.992 4.992 0 01-2-4c0-1.636.786-3.088 2-4z" fill="#7673C0"></path>
    </g>
  </symbol>
  <symbol xmlns="http://www.w3.org/2000/svg" viewBox="0 0 24 24" id="icons-mastercard-mini">
    <title>60471A6C-4522-4BA8-B495-CF610589EFDC@1x</title>
    <g transform="translate(0 4)" fill="none">
      <rect fill="#252525" width="24" height="16" rx="2"></rect>
      <circle fill="#EB001B" cx="9" cy="8" r="5"></circle>
      <circle fill="#F79E1B" cx="15" cy="8" r="5"></circle>
      <path d="M12 4c1.214.912 2 2.364 2 4a4.992 4.992 0 01-2 4 4.992 4.992 0 01-2-4c0-1.636.786-3.088 2-4z" fill="#FF5F00"></path>
    </g>
  </symbol>
  <symbol xmlns="http://www.w3.org/2000/svg" viewBox="0 0 24 24" id="icons-visa-mini">
    <title>BEBEB765-0393-4E71-9C74-22CE5C984B18@1x</title>
    <g transform="translate(0 4)" fill="none">
      <rect stroke="#5C6F82" stroke-width=".5" fill="#FFF" x=".25" y=".25" width="23.5" height="15.5" rx="2"></rect>
      <path d="M2.788 5.914A7.201 7.201 0 001 5.237l.028-.125h2.737c.371.013.672.125.77.519l.595 2.836.182.854 1.666-4.21h1.799l-2.674 6.167H4.304L2.788 5.914zm7.312 5.37H8.399l1.064-6.172h1.7L10.1 11.284zm6.167-6.021l-.232 1.333-.153-.066a3.054 3.054 0 00-1.268-.236c-.671 0-.972.269-.98.531 0 .29.365.48.96.762.98.44 1.435.979 1.428 1.681-.014 1.28-1.176 2.108-2.96 2.108-.764-.007-1.5-.158-1.898-.328l.238-1.386.224.099c.553.23.917.328 1.596.328.49 0 1.015-.19 1.022-.604 0-.27-.224-.466-.882-.769-.644-.295-1.505-.788-1.491-1.674C11.878 5.84 13.06 5 14.74 5c.658 0 1.19.138 1.526.263zm2.26 3.834h1.415c-.07-.308-.392-1.786-.392-1.786l-.12-.531c-.083.23-.23.604-.223.59l-.68 1.727zm2.1-3.985L22 11.284h-1.575s-.154-.71-.203-.926h-2.184l-.357.926h-1.785l2.527-5.66c.175-.4.483-.512.889-.512h1.316z" fill="#171E6C"></path>
    </g>
  </symbol>
  <symbol viewBox="0 0 24 24" xmlns="http://www.w3.org/2000/svg" id="icons-diners-club-mini">
    <path d="M21.9972 19.7499L21.9994 19.7499C22.9545 19.7581 23.7381 18.9773 23.75 18.0042L23.75 6.0063C23.7462 5.53569 23.5589 5.08617 23.2297 4.7568C22.9014 4.42827 22.4589 4.24615 21.9972 4.25007L2.00064 4.25006C1.54109 4.24615 1.09858 4.42827 0.770279 4.7568C0.441145 5.08617 0.253838 5.53569 0.250008 6.00426L0.25 17.9937C0.253838 18.4643 0.441145 18.9138 0.770279 19.2432C1.09858 19.5717 1.54109 19.7538 2.00277 19.7499H21.9972Z" fill="white" stroke="#5C6F82" stroke-width="0.5"/>
    <path d="M10.0022 6.05177V6.03577H14.0022V6.05177C17.1376 6.28121 19.5643 8.89195 19.5643 12.0358C19.5643 15.1796 17.1376 17.7903 14.0022 18.0198V18.0358H10.0022V18.0198C6.86674 17.7903 4.44006 15.1796 4.44006 12.0358C4.44006 8.89195 6.86674 6.28121 10.0022 6.05177Z" fill="#0165AC"/>
    <path fill-rule="evenodd" clip-rule="evenodd" d="M5.20215 12.0358C5.20215 14.9077 7.53027 17.2358 10.4021 17.2358C13.274 17.2358 15.6021 14.9077 15.6021 12.0358C15.6021 9.16393 13.274 6.83582 10.4021 6.83582C7.53027 6.83582 5.20215 9.16393 5.20215 12.0358ZM9.20215 8.64382C7.76686 9.1541 6.80811 10.5125 6.80811 12.0358C6.80811 13.5591 7.76686 14.9175 9.20215 15.4278V8.64382ZM11.6021 15.4278C13.0374 14.9175 13.9962 13.5591 13.9962 12.0358C13.9962 10.5125 13.0374 9.1541 11.6021 8.64382V15.4278Z" fill="white"/>
  </symbol>
  <symbol viewBox="0 0 24 24" xmlns="http://www.w3.org/2000/svg" id="icons-diners-mini">
    <path d="M21.9972 19.7499L21.9994 19.7499C22.9545 19.7581 23.7381 18.9773 23.75 18.0042L23.75 6.0063C23.7462 5.53569 23.5589 5.08617 23.2297 4.7568C22.9014 4.42827 22.4589 4.24615 21.9972 4.25007L2.00064 4.25006C1.54109 4.24615 1.09858 4.42827 0.770279 4.7568C0.441145 5.08617 0.253838 5.53569 0.250008 6.00426L0.25 17.9937C0.253838 18.4643 0.441145 18.9138 0.770279 19.2432C1.09858 19.5717 1.54109 19.7538 2.00277 19.7499H21.9972Z" fill="white" stroke="#5C6F82" stroke-width="0.5"/>
    <path d="M10.0022 6.05177V6.03577H14.0022V6.05177C17.1376 6.28121 19.5643 8.89195 19.5643 12.0358C19.5643 15.1796 17.1376 17.7903 14.0022 18.0198V18.0358H10.0022V18.0198C6.86674 17.7903 4.44006 15.1796 4.44006 12.0358C4.44006 8.89195 6.86674 6.28121 10.0022 6.05177Z" fill="#0165AC"/>
    <path fill-rule="evenodd" clip-rule="evenodd" d="M5.20215 12.0358C5.20215 14.9077 7.53027 17.2358 10.4021 17.2358C13.274 17.2358 15.6021 14.9077 15.6021 12.0358C15.6021 9.16393 13.274 6.83582 10.4021 6.83582C7.53027 6.83582 5.20215 9.16393 5.20215 12.0358ZM9.20215 8.64382C7.76686 9.1541 6.80811 10.5125 6.80811 12.0358C6.80811 13.5591 7.76686 14.9175 9.20215 15.4278V8.64382ZM11.6021 15.4278C13.0374 14.9175 13.9962 13.5591 13.9962 12.0358C13.9962 10.5125 13.0374 9.1541 11.6021 8.64382V15.4278Z" fill="white"/>
  </symbol>
  <symbol viewBox="0 0 48 30" xmlns="http://www.w3.org/2000/svg" id="icons-american-express">
    <g fill="none">
      <path d="M48 28.406C48 29.3 47.275 30 46.406 30H1.594A1.593 1.593 0 0 1 0 28.406V1.594C0 .7.725 0 1.594 0h44.812C47.299 0 48 .725 48 1.594v26.812z" fill="#006FCF"></path>
      <path d="M14.88 14.208v-.48l-.216.48h-1.968l-.24-.504v.504h-3.72l-.432-1.032H7.56l-.456 1.032h-1.92v-3.12L6.576 7.92h2.688l.384.888V7.92h3.288l.72 1.512.696-1.512H24.72s.552 0 .912.24v-.24h2.616v.336s.48-.336 1.176-.336h4.608l.408.912V7.92h2.952l.528.912V7.92h2.832v6.288h-2.904l-.672-1.104v1.08h-3.6l-.504-1.128h-.696l-.48 1.128h-2.184s-.816 0-1.416-.456v.456h-4.344V12.72c0-.216-.168-.192-.168-.192h-.168v1.656H14.88v.024zm-2.16 1.368h5.712l.816.936.84-.936h4.392s.408 0 .792.216v-.216h3.912c.504 0 .912.24.912.24v-.24h5.016v.24s.36-.24.84-.24h3.264v.24s.408-.24.84-.24h2.568v5.928s-.336.384-1.032.384h-3.384v-.192s-.312.192-.816.192h-9v-1.536c0-.144-.072-.168-.192-.168h-.12v1.704h-2.808v-1.704s-.312.168-.84.168h-1.008v1.536h-3.456l-.792-.96-.84.96H12.72v-6.312z" fill="#FFF"></path>
      <path fill="#006FCF" d="M30.72 16.512h3.576v.96H31.8v.84h2.424v.84H31.8v.888h2.496v.936H30.72zm10.488 1.752c1.344.072 1.464.744 1.464 1.464 0 .84-.696 1.296-1.416 1.296h-2.304v-.96h1.8c.312 0 .768 0 .768-.432 0-.192-.072-.336-.408-.36a9.4 9.4 0 0 0-.768-.048c-1.224-.024-1.512-.648-1.512-1.368 0-.84.6-1.296 1.296-1.296h2.304v.96h-1.68c-.384 0-.792-.048-.792.384 0 .264.216.336.456.36.12-.048.72 0 .792 0zm-4.128 0c1.344.072 1.464.744 1.464 1.464 0 .84-.696 1.296-1.416 1.296h-2.304v-.96h1.8c.312 0 .768 0 .768-.432 0-.192-.072-.336-.408-.36a9.4 9.4 0 0 0-.768-.048c-1.224-.024-1.488-.648-1.488-1.368 0-.84.576-1.296 1.296-1.296h2.304v.96h-1.68c-.384 0-.792-.048-.792.384 0 .264.216.336.456.36.096-.048.696 0 .768 0zm-12.984-1.728h-3.84l-1.248 1.392-1.224-1.392h-4.32V21h4.176l1.32-1.464 1.296 1.488h2.112v-1.512h1.464c.576 0 1.608-.024 1.608-1.584-.024-1.152-.816-1.392-1.344-1.392zm-7.032 3.504h-2.52v-.888h2.424v-.84h-2.424v-.84h2.664l1.056 1.224-1.2 1.344zm4.2.528l-1.584-1.872 1.584-1.752v3.624zm2.472-2.016h-1.368v-1.08h1.368c.456 0 .6.288.6.504 0 .312-.168.576-.6.576zm5.64.408c.6-.288.768-.696.768-1.224 0-.96-.768-1.2-1.32-1.2h-2.856V21h1.104v-1.584h1.44c.384 0 .528.384.528.768l.024.816h1.056l-.048-.912c.024-.744-.168-1.08-.696-1.128zm-.936-.456h-1.368v-1.008h1.368c.456 0 .6.288.6.504 0 .288-.144.504-.6.504zm-2.016-9.696h1.104v4.464h-1.104zm-8.976 0h3.576v.96h-2.472v.84h2.4v.864h-2.4v.864h2.472v.936h-3.576zm7.632 2.448c.6-.288.768-.696.768-1.224 0-.96-.768-1.2-1.32-1.2h-2.856v4.464h1.104v-1.584h1.44c.384 0 .528.384.528.768l.024.816h1.056l-.048-.912c.024-.744-.168-1.08-.696-1.128zm-.936-.48h-1.368V9.768h1.368c.456 0 .6.288.6.504 0 .312-.144.504-.6.504zm-9.216-1.968l-1.344 3-1.344-3h-1.728v4.296l-1.92-4.296h-1.44l-1.944 4.464H6.36l.432-1.008h2.184l.432 1.008h2.208V9.96l1.464 3.312h1.008l1.488-3.264v3.264h1.104V8.808h-1.752zM7.2 11.328l.648-1.56.672 1.56H7.2zm31.632-2.52v3.096l-1.848-3.096h-1.608v4.2l-1.872-4.2h-1.44l-1.512 3.456s-.648 0-.696-.024c-.264-.048-.672-.24-.672-1.032v-.312c0-1.056.576-1.128 1.296-1.128h.672v-.96h-1.44c-.504 0-1.584.384-1.608 2.208-.024 1.224.504 2.256 1.728 2.256h1.44l.432-1.008h2.184l.432 1.008h2.16v-3.264l1.968 3.264h1.488V8.808h-1.104zm-6.744 2.52l.648-1.56.696 1.56h-1.344z"></path>
    </g>
  </symbol>
  <symbol viewBox="0 0 48 30" xmlns="http://www.w3.org/2000/svg" id="icons-amex">
    <g fill="none">
      <path d="M48 28.406C48 29.3 47.275 30 46.406 30H1.594A1.593 1.593 0 0 1 0 28.406V1.594C0 .7.725 0 1.594 0h44.812C47.299 0 48 .725 48 1.594v26.812z" fill="#006FCF"></path>
      <path d="M14.88 14.208v-.48l-.216.48h-1.968l-.24-.504v.504h-3.72l-.432-1.032H7.56l-.456 1.032h-1.92v-3.12L6.576 7.92h2.688l.384.888V7.92h3.288l.72 1.512.696-1.512H24.72s.552 0 .912.24v-.24h2.616v.336s.48-.336 1.176-.336h4.608l.408.912V7.92h2.952l.528.912V7.92h2.832v6.288h-2.904l-.672-1.104v1.08h-3.6l-.504-1.128h-.696l-.48 1.128h-2.184s-.816 0-1.416-.456v.456h-4.344V12.72c0-.216-.168-.192-.168-.192h-.168v1.656H14.88v.024zm-2.16 1.368h5.712l.816.936.84-.936h4.392s.408 0 .792.216v-.216h3.912c.504 0 .912.24.912.24v-.24h5.016v.24s.36-.24.84-.24h3.264v.24s.408-.24.84-.24h2.568v5.928s-.336.384-1.032.384h-3.384v-.192s-.312.192-.816.192h-9v-1.536c0-.144-.072-.168-.192-.168h-.12v1.704h-2.808v-1.704s-.312.168-.84.168h-1.008v1.536h-3.456l-.792-.96-.84.96H12.72v-6.312z" fill="#FFF"></path>
      <path fill="#006FCF" d="M30.72 16.512h3.576v.96H31.8v.84h2.424v.84H31.8v.888h2.496v.936H30.72zm10.488 1.752c1.344.072 1.464.744 1.464 1.464 0 .84-.696 1.296-1.416 1.296h-2.304v-.96h1.8c.312 0 .768 0 .768-.432 0-.192-.072-.336-.408-.36a9.4 9.4 0 0 0-.768-.048c-1.224-.024-1.512-.648-1.512-1.368 0-.84.6-1.296 1.296-1.296h2.304v.96h-1.68c-.384 0-.792-.048-.792.384 0 .264.216.336.456.36.12-.048.72 0 .792 0zm-4.128 0c1.344.072 1.464.744 1.464 1.464 0 .84-.696 1.296-1.416 1.296h-2.304v-.96h1.8c.312 0 .768 0 .768-.432 0-.192-.072-.336-.408-.36a9.4 9.4 0 0 0-.768-.048c-1.224-.024-1.488-.648-1.488-1.368 0-.84.576-1.296 1.296-1.296h2.304v.96h-1.68c-.384 0-.792-.048-.792.384 0 .264.216.336.456.36.096-.048.696 0 .768 0zm-12.984-1.728h-3.84l-1.248 1.392-1.224-1.392h-4.32V21h4.176l1.32-1.464 1.296 1.488h2.112v-1.512h1.464c.576 0 1.608-.024 1.608-1.584-.024-1.152-.816-1.392-1.344-1.392zm-7.032 3.504h-2.52v-.888h2.424v-.84h-2.424v-.84h2.664l1.056 1.224-1.2 1.344zm4.2.528l-1.584-1.872 1.584-1.752v3.624zm2.472-2.016h-1.368v-1.08h1.368c.456 0 .6.288.6.504 0 .312-.168.576-.6.576zm5.64.408c.6-.288.768-.696.768-1.224 0-.96-.768-1.2-1.32-1.2h-2.856V21h1.104v-1.584h1.44c.384 0 .528.384.528.768l.024.816h1.056l-.048-.912c.024-.744-.168-1.08-.696-1.128zm-.936-.456h-1.368v-1.008h1.368c.456 0 .6.288.6.504 0 .288-.144.504-.6.504zm-2.016-9.696h1.104v4.464h-1.104zm-8.976 0h3.576v.96h-2.472v.84h2.4v.864h-2.4v.864h2.472v.936h-3.576zm7.632 2.448c.6-.288.768-.696.768-1.224 0-.96-.768-1.2-1.32-1.2h-2.856v4.464h1.104v-1.584h1.44c.384 0 .528.384.528.768l.024.816h1.056l-.048-.912c.024-.744-.168-1.08-.696-1.128zm-.936-.48h-1.368V9.768h1.368c.456 0 .6.288.6.504 0 .312-.144.504-.6.504zm-9.216-1.968l-1.344 3-1.344-3h-1.728v4.296l-1.92-4.296h-1.44l-1.944 4.464H6.36l.432-1.008h2.184l.432 1.008h2.208V9.96l1.464 3.312h1.008l1.488-3.264v3.264h1.104V8.808h-1.752zM7.2 11.328l.648-1.56.672 1.56H7.2zm31.632-2.52v3.096l-1.848-3.096h-1.608v4.2l-1.872-4.2h-1.44l-1.512 3.456s-.648 0-.696-.024c-.264-.048-.672-.24-.672-1.032v-.312c0-1.056.576-1.128 1.296-1.128h.672v-.96h-1.44c-.504 0-1.584.384-1.608 2.208-.024 1.224.504 2.256 1.728 2.256h1.44l.432-1.008h2.184l.432 1.008h2.16v-3.264l1.968 3.264h1.488V8.808h-1.104zm-6.744 2.52l.648-1.56.696 1.56h-1.344z"></path>
    </g>
  </symbol>
  <symbol viewBox="0 0 48 30" xmlns="http://www.w3.org/2000/svg" id="icons-maestro">
    <g fill="none">
      <path d="M47.76 28.32c0 .888-.72 1.584-1.584 1.584H1.584C.696 29.904 0 29.184 0 28.32V1.632C0 .744.72.048 1.584.048h44.592c.888 0 1.584.72 1.584 1.584V28.32z" fill="#000"></path>
      <path fill="#000" d="M3.6 2.16h40.397v25.546H3.6z"></path>
      <path d="M18.278 25.57v-1.44a.852.852 0 0 0-.9-.91.888.888 0 0 0-.806.408.842.842 0 0 0-.758-.408.758.758 0 0 0-.672.34v-.282h-.5v2.292h.504v-1.277a.535.535 0 0 1 .562-.61c.331 0 .5.216.5.605v1.274h.503v-1.27a.54.54 0 0 1 .562-.609c.34 0 .504.216.504.605v1.274l.501.008zm2.808-1.145V23.28h-.504v.278a.869.869 0 0 0-.72-.336 1.2 1.2 0 1 0 0 2.4.866.866 0 0 0 .72-.336v.279h.5l.004-1.14zm-1.855 0a.694.694 0 1 1 .696.734.686.686 0 0 1-.7-.734h.004zm12.521-1.2c.164 0 .327.03.48.091a1.162 1.162 0 0 1 .658.638c.125.308.125.653 0 .96a1.16 1.16 0 0 1-.65.636 1.358 1.358 0 0 1-.985 0 1.171 1.171 0 0 1-.646-.636 1.274 1.274 0 0 1 0-.96 1.171 1.171 0 0 1 .646-.636c.156-.064.323-.098.492-.098l.005.005zm0 .48a.744.744 0 0 0-.286.053.674.674 0 0 0-.379.39.833.833 0 0 0 0 .596.672.672 0 0 0 .38.391.78.78 0 0 0 .808-.151.694.694 0 0 0 .151-.24.833.833 0 0 0 0-.595.696.696 0 0 0-.15-.24.686.686 0 0 0-.24-.151.744.744 0 0 0-.289-.068l.005.015zm-7.954.72c0-.72-.446-1.2-1.087-1.2a1.2 1.2 0 0 0 .034 2.4c.341.011.676-.103.938-.322l-.24-.37c-.19.153-.424.237-.667.24a.636.636 0 0 1-.686-.561h1.701c.007-.058.007-.12.007-.187zm-1.706-.202a.59.59 0 0 1 .61-.557.569.569 0 0 1 .58.557h-1.19zm3.806-.36a1.476 1.476 0 0 0-.72-.197c-.273 0-.436.101-.436.27 0 .167.172.196.388.225l.24.033c.5.072.802.284.802.687 0 .403-.384.749-1.044.749a1.654 1.654 0 0 1-.991-.298l.24-.389c.22.164.489.248.763.24.34 0 .523-.1.523-.278 0-.13-.13-.202-.403-.24l-.24-.034c-.514-.072-.792-.302-.792-.677 0-.456.374-.734.96-.734.328-.011.652.072.934.24l-.224.403zm2.4-.13h-.813v1.04c0 .24.081.384.331.384a.922.922 0 0 0 .442-.13l.144.427a1.171 1.171 0 0 1-.624.178c-.59 0-.797-.317-.797-.85v-1.044h-.466v-.456h.466v-.696h.504v.696h.813v.452zm1.726-.513c.121 0 .241.022.355.062l-.153.48a.811.811 0 0 0-.312-.057c-.327 0-.48.211-.48.59v1.284h-.5v-2.292h.495v.279a.677.677 0 0 1 .605-.336l-.01-.01zm3.451 2.014a.24.24 0 0 1 .166.064.223.223 0 0 1-.074.37.226.226 0 0 1-.092.02.24.24 0 0 1-.216-.14.226.226 0 0 1 .05-.25.24.24 0 0 1 .075-.048.24.24 0 0 1 .08-.014l.011-.002zm0 .405a.17.17 0 0 0 .125-.053.178.178 0 0 0-.125-.302.18.18 0 0 0-.127.053.178.178 0 0 0 0 .24.18.18 0 0 0 .127.053v.01zm.015-.285a.096.096 0 0 1 .062.019.06.06 0 0 1 .022.05.058.058 0 0 1-.017.043.084.084 0 0 1-.05.022l.069.08h-.055l-.065-.08h-.022v.08h-.045v-.212l.1-.002zm-.053.04v.058h.053a.05.05 0 0 0 .028 0 .024.024 0 0 0 0-.022.024.024 0 0 0 0-.021.05.05 0 0 0-.028 0l-.053-.015z" fill="#FFF"></path>
      <path fill="#7673C0" d="M20.018 5.794h7.56V19.38h-7.56z"></path>
      <path d="M20.498 12.586a8.626 8.626 0 0 1 3.3-6.792 8.64 8.64 0 1 0 0 13.586 8.626 8.626 0 0 1-3.3-6.794z" fill="#EB001B"></path>
      <path d="M37.018 18.597v-.823h.155v-.17h-.393v.17h.155v.823h.083zm.762 0v-.993h-.119l-.138.71-.139-.71h-.119v.993h.086v-.745l.129.646h.089l.128-.646v.752l.083-.007zm-.002-6.011a8.64 8.64 0 0 1-13.98 6.792 8.64 8.64 0 0 0 0-13.587 8.64 8.64 0 0 1 13.98 6.792v.003z" fill="#00A1DF"></path>
    </g>
  </symbol>
  <symbol viewBox="0 0 48 30" xmlns="http://www.w3.org/2000/svg" id="icons-mastercard">
    <g fill="none">
      <path d="M46.272 29.904H1.656c-.888 0-1.584-.72-1.584-1.584V1.632C.072.744.792.048 1.656.048h44.592c.888 0 1.584.72 1.584 1.584V28.32a1.547 1.547 0 0 1-1.56 1.584z" fill="#000"></path>
      <path fill="#000" d="M3.84 2.16h40.397v25.546H3.84z"></path>
      <path d="M15.12 25.572v-1.44a.838.838 0 0 0-.883-.907.89.89 0 0 0-.807.408.845.845 0 0 0-.758-.408.785.785 0 0 0-.691.336v-.281h-.473v2.297h.466v-1.32a.552.552 0 0 1 .58-.61c.332 0 .519.216.519.605v1.322h.465v-1.317a.554.554 0 0 1 .581-.61c.341 0 .523.216.523.605v1.322l.478-.002zm7.478-2.292h-.835v-.696h-.468v.696h-.48v.418h.48v1.087c0 .533.187.85.778.85.22 0 .437-.062.624-.178l-.144-.408a.922.922 0 0 1-.442.13c-.24 0-.35-.154-.35-.385v-1.101h.835l.002-.413zm4.263-.058a.72.72 0 0 0-.624.336v-.278h-.456v2.297h.46V24.28c0-.38.183-.624.51-.624a.814.814 0 0 1 .311.057l.154-.434a1.068 1.068 0 0 0-.355-.062v.004zm-6.444.24a1.718 1.718 0 0 0-.936-.24c-.581 0-.936.274-.936.72 0 .375.259.6.773.672l.24.034c.273.038.422.134.422.264 0 .178-.202.293-.542.293a1.2 1.2 0 0 1-.764-.24l-.24.36c.293.2.64.303.994.297.662 0 1.03-.307 1.03-.744 0-.436-.281-.602-.778-.674l-.24-.034c-.216-.028-.408-.096-.408-.24s.182-.283.456-.283c.253.003.5.071.72.197l.209-.382zm6.96.96a1.145 1.145 0 0 0 1.2 1.2 1.2 1.2 0 0 0 .825-.273l-.24-.36a1.01 1.01 0 0 1-.6.206.782.782 0 0 1 0-1.557c.217.002.428.075.6.206l.24-.36a1.2 1.2 0 0 0-.825-.274 1.145 1.145 0 0 0-1.2 1.2v.012zm-3.23-1.2c-.673 0-1.136.48-1.136 1.2a1.13 1.13 0 0 0 1.169 1.2c.342.012.677-.102.94-.321l-.24-.341a1.092 1.092 0 0 1-.666.24.674.674 0 0 1-.694-.588h1.716v-.192c0-.72-.437-1.2-1.082-1.2l-.008.002zm0 .428a.586.586 0 0 1 .604.58H23.52a.614.614 0 0 1 .634-.58h-.008zm-6.219.775V23.28h-.46v.278a.91.91 0 0 0-.745-.336 1.206 1.206 0 0 0 0 2.412.91.91 0 0 0 .744-.336v.279h.461v-1.152zm-1.86 0a.72.72 0 0 1 .72-.778.782.782 0 0 1 0 1.558.72.72 0 0 1-.72-.778v-.002zm17.734-1.2a.72.72 0 0 0-.624.336v-.281h-.456v2.297h.46V24.28c0-.38.183-.624.51-.624a.814.814 0 0 1 .311.057l.154-.432a1.068 1.068 0 0 0-.355-.062v.005zm3.7 2.02a.24.24 0 0 1 .166.065.223.223 0 0 1-.074.37.226.226 0 0 1-.092.02.24.24 0 0 1-.216-.14.226.226 0 0 1 .05-.25.24.24 0 0 1 .075-.048.24.24 0 0 1 .091-.024v.008zm0 .406a.17.17 0 0 0 .125-.053.178.178 0 0 0 0-.24.178.178 0 0 0-.125-.052.178.178 0 0 0-.07.014.175.175 0 0 0-.057.038.178.178 0 0 0 0 .24.18.18 0 0 0 .058.039.178.178 0 0 0 .07.01v.004zm.015-.285a.096.096 0 0 1 .062.019.06.06 0 0 1 .022.05.058.058 0 0 1-.017.043.084.084 0 0 1-.05.022l.07.08h-.056l-.065-.08h-.021v.08h-.046v-.212l.1-.002zm-.053.04v.058h.053a.05.05 0 0 0 .029 0 .024.024 0 0 0 0-.022.024.024 0 0 0 0-.021.053.053 0 0 0-.03 0l-.052-.015zm-5.431-.976v-1.15h-.461v.278a.91.91 0 0 0-.744-.336 1.206 1.206 0 0 0 0 2.412.91.91 0 0 0 .744-.336v.279h.46V24.43zm-1.86 0a.72.72 0 0 1 .72-.778.782.782 0 0 1 0 1.558.72.72 0 0 1-.72-.778v-.002zm6.497 0v-2.076h-.461v1.2a.91.91 0 0 0-.744-.336 1.206 1.206 0 0 0 0 2.412.91.91 0 0 0 .744-.336v.278h.46V24.43zm-1.86 0a.72.72 0 0 1 .72-.778.782.782 0 0 1-.01 1.548.72.72 0 0 1-.72-.775l.01.005z" fill="#FFF"></path>
      <path fill="#FF5F00" d="M20.258 5.794h7.56V19.38h-7.56z"></path>
      <path d="M20.738 12.588a8.626 8.626 0 0 1 3.3-6.792 8.64 8.64 0 1 0 0 13.586 8.626 8.626 0 0 1-3.3-6.794z" fill="#EB001B"></path>
      <path d="M37.265 18.606v-.828h.155v-.172h-.393v.172h.155v.828h.083zm.762 0v-1h-.119l-.138.715-.139-.715h-.119v1h.083v-.757l.129.65h.089l.128-.65v.757h.086zm-.009-6.018a8.64 8.64 0 0 1-13.98 6.792 8.64 8.64 0 0 0 0-13.586 8.64 8.64 0 0 1 13.98 6.792v.002z" fill="#F79E1B"></path>
    </g>
  </symbol>
  <symbol viewBox="0 0 48 30" xmlns="http://www.w3.org/2000/svg" id="icons-visa">
    <g fill="none">
      <path d="M47.928 28.32c0 .888-.72 1.584-1.584 1.584H1.752c-.888 0-1.584-.72-1.584-1.584V1.632C.168.744.888.048 1.752.048h44.592c.888 0 1.584.72 1.584 1.584V28.32z" fill="#3957A7"></path>
      <path d="M22.152 19.464H19.8l1.464-8.976h2.328zm-4.32-8.976L15.6 16.656l-.24-1.32-.792-4.032s-.096-.816-1.104-.816H9.792l-.048.144s1.128.24 2.448 1.032l2.016 7.8h2.424l3.72-8.976h-2.52zm18.384 8.976h2.136l-1.872-8.976h-1.872c-.864 0-1.08.672-1.08.672l-3.48 8.304h2.424l.48-1.32h2.976l.288 1.32zm-2.568-3.192l1.224-3.36.696 3.36h-1.92zm-3.432-3.624l.336-1.92s-1.032-.384-2.088-.384c-1.152 0-3.912.504-3.912 2.976 0 2.328 3.24 2.352 3.24 3.552 0 1.224-2.904 1.008-3.864.24l-.336 2.016s1.032.504 2.64.504c1.584 0 4.008-.816 4.008-3.072 0-2.328-3.264-2.544-3.264-3.552-.024-1.032 2.256-.912 3.24-.36z" fill="#FFF"></path>
      <path d="M15.36 15.336l-.792-4.032s-.096-.816-1.104-.816H9.792l-.048.144s1.776.36 3.456 1.728c1.632 1.344 2.16 2.976 2.16 2.976z" fill="#F9A533"></path>
    </g>
  </symbol>
  <symbol viewBox="0 0 48 30" xmlns="http://www.w3.org/2000/svg" id="icons-visaelectron">
    <g fill="none" fill-rule="evenodd">
      <path d="M48 28.344c0 .888-.724 1.584-1.592 1.584H1.592c-.893 0-1.592-.72-1.592-1.584V1.656C0 .768.724.072 1.592.072h44.816c.893 0 1.592.72 1.592 1.584v26.688z" fill="#045EA0" fill-rule="nonzero"></path>
      <path d="M16.16 16.896c3.643-1.56 8.732-2.952 15.486-1.536l.073-1.704c-7.116-.768-12.23 1.488-15.558 3.096v.144z" fill="#FAA929"></path>
      <path fill="#FFF" d="M9.6 18.144h3.425v1.032h-2.122l-.025.936h2.123v.984h-2.123v.96h2.099v1.032H9.6zm4.27-.408h1.254v5.352h-1.23zm5.547 4.944c-.434.36-1.061.528-1.64.528-1.303 0-1.906-.936-1.906-1.848 0-1.08.82-1.992 1.954-1.992 1.375 0 1.81.96 1.81 2.208h-2.51c0 .288.17.744.869.744.434 0 .675-.12 1.013-.36l.41.72zm-.916-1.848c0-.36-.17-.696-.604-.696-.385 0-.699.36-.771.696H18.5zm4.896 2.016c-.338.216-.917.36-1.327.36-1.157 0-1.978-.648-1.978-1.848 0-1.224.82-2.016 2.05-2.016.435 0 .941.144 1.23.312l-.41.816c-.192-.072-.385-.144-.578-.144-.627 0-1.037.36-1.037.96 0 .504.41.912.94.912.242 0 .483-.096.676-.216l.434.864zm.458-3.36h.555v-1.224h1.206l-.024 1.224h1.013l-.024.888h-1.013c0 .504-.024 1.032-.024 1.344 0 .312.072.456.362.456.168 0 .313-.096.458-.168l.265.84c-.362.216-.82.36-1.23.36-1.013 0-1.061-.624-1.061-1.464 0-.432.024-.888.024-1.368h-.53l.023-.888zm3.401 0h1.255v.504h.024c.193-.312.434-.6.916-.6.145 0 .29.024.41.048l-.169 1.224c-.12-.024-.265-.072-.434-.072-.41 0-.747.36-.747.432l-.025 2.064h-1.254l.024-3.6zm4.849-.12c1.326 0 2.026.84 2.026 1.92s-.7 1.92-2.026 1.92c-1.327 0-2.027-.84-2.027-1.92s.7-1.92 2.027-1.92zm0 2.904c.603 0 .771-.504.771-.984s-.168-.984-.771-.984-.772.504-.772.984c0 .456.169.984.772.984zm2.701-2.784h1.254v.384c.29-.288.724-.528 1.158-.528.772 0 1.182.432 1.182 1.416 0 .744 0 1.536-.024 2.328h-1.254c0-.696.024-1.392.024-2.136 0-.288-.073-.528-.459-.528-.193 0-.482.168-.65.336v2.328h-1.28l.049-3.6zm-14.955-7.392l1.568-5.184h1.4l-1.569 5.184zm-.627-5.184L17.97 9.096c-.314.576-.507.864-.603 1.224h-.024c.024-.456-.049-1.032-.049-1.344l-.144-2.064h-2.364l-.024.144c.603 0 .965.312 1.061.936l.458 4.104h1.448l2.942-5.16h-1.447v-.024zm10.926 5.184l-.047-.768h-1.761l-.362.768h-1.52l2.774-5.16h1.882l.458 5.16H30.15zm-.168-3.048a10.34 10.34 0 0 1 0-1.224h-.024c-.097.264-.459 1.032-.603 1.416l-.53 1.128h1.23l-.073-1.32zm-5.668 3.192c-.99 0-1.64-.312-2.123-.6l.675-1.008c.41.24.748.504 1.52.504.241 0 .482-.072.627-.288.193-.336-.048-.528-.603-.816l-.29-.192c-.82-.552-1.157-1.08-.771-1.992.24-.576.892-1.032 1.954-1.032.723 0 1.423.312 1.833.624l-.772.888c-.386-.312-.724-.48-1.086-.48-.29 0-.53.12-.603.264-.144.288.049.48.483.744l.313.216c.99.624 1.23 1.272.965 1.872-.434 1.056-1.254 1.296-2.122 1.296z"></path>
    </g>
  </symbol>
  <symbol fill="none" xmlns="http://www.w3.org/2000/svg" viewBox="0 0 48 30" id="icons-diners-club">
    <g clip-path="url(#clip0)">
      <path fill="#fff" d="M0 0h48v29.981H0z"></path>
      <mask id="a" maskUnits="userSpaceOnUse" x="0" y="0" width="48" height="30">
        <path fill-rule="evenodd" clip-rule="evenodd" d="M0 0h48v29.981H0V0z" fill="#fff"></path>
      </mask>
      <g mask="url(#a)" fill-rule="evenodd" clip-rule="evenodd">
        <path d="M47.697 27.15c0 1.48-1.438 2.68-3.213 2.68H3.515c-1.774 0-3.212-1.2-3.212-2.68V2.982c0-1.48 1.438-2.68 3.212-2.68h40.97c1.774 0 3.212 1.2 3.212 2.68V27.15z" fill="#FFFFFE"></path>
        <path d="M3.49 29.981C1.566 29.978 0 28.681 0 27.07V2.912C0 1.299 1.567.002 3.49 0h41.02c1.923.003 3.489 1.3 3.49 2.912V27.07c-.001 1.612-1.567 2.909-3.49 2.911H3.49zM.544 2.911V27.07c.003 1.347 1.313 2.446 2.944 2.446H44.51c1.63 0 2.942-1.1 2.944-2.446V2.912C47.452 1.564 46.141.465 44.51.465H3.49C1.857.465.547 1.565.544 2.912z" fill="#184977"></path>
      </g>
      <path fill-rule="evenodd" clip-rule="evenodd" d="M7.364 18.068c0-.661-.345-.617-.676-.625v-.19c.287.013.58.013.868.013.308 0 .727-.014 1.272-.014 1.903 0 2.94 1.272 2.94 2.573 0 .729-.426 2.559-3.029 2.559-.375 0-.72-.015-1.066-.015-.33 0-.654.007-.985.015v-.191c.44-.045.655-.06.676-.56v-3.565zm.72 3.448c0 .566.405.632.765.632 1.589 0 2.11-1.198 2.11-2.293 0-1.375-.882-2.367-2.3-2.367-.303 0-.442.021-.575.03v3.998zm3.942.677h.139c.206 0 .353 0 .353-.244v-1.992c0-.323-.11-.367-.383-.514v-.117c.346-.104.758-.243.787-.265a.26.26 0 01.133-.037c.036 0 .05.044.05.103v2.822c0 .244.163.244.369.244h.124v.19c-.25 0-.507-.014-.771-.014-.265 0-.53.007-.801.015v-.191zm.786-4.301a.377.377 0 01-.36-.367c0-.185.177-.354.36-.354.19 0 .36.155.36.354a.367.367 0 01-.36.367zm1.485 2.11c0-.272-.081-.345-.426-.485v-.14c.316-.103.617-.199.97-.353.022 0 .043.014.043.073v.478c.42-.3.78-.551 1.274-.551.624 0 .844.456.844 1.03v1.895c0 .244.163.244.368.244h.133v.19c-.258 0-.515-.014-.78-.014s-.53.007-.794.015v-.191h.132c.206 0 .353 0 .353-.244v-1.903c0-.42-.256-.625-.676-.625-.235 0-.61.19-.854.353v2.175c0 .244.163.244.369.244h.132v.19c-.257 0-.514-.014-.78-.014-.264 0-.529.007-.793.015v-.191h.133c.205 0 .352 0 .352-.244v-1.947zm3.764.353c-.014.066-.014.176 0 .426.044.699.493 1.272 1.08 1.272.406 0 .722-.22.994-.492l.102.103c-.338.448-.757.83-1.36.83-1.169 0-1.404-1.132-1.404-1.602 0-1.442.97-1.868 1.485-1.868.596 0 1.236.375 1.243 1.154 0 .045 0 .088-.007.133l-.067.044h-2.066zm1.302-.235c.184 0 .205-.096.205-.185 0-.374-.228-.675-.64-.675-.448 0-.756.33-.845.86h1.28zm1.007 2.073h.198c.206 0 .353 0 .353-.244v-2.065c0-.227-.272-.272-.382-.33v-.11c.536-.229.83-.42.898-.42.043 0 .065.022.065.096v.661h.015c.183-.286.493-.757.94-.757.185 0 .42.125.42.39 0 .198-.14.375-.345.375-.229 0-.229-.177-.486-.177-.125 0-.537.17-.537.61v1.727c0 .244.147.244.353.244h.411v.19c-.404-.007-.712-.014-1.028-.014-.302 0-.61.007-.875.015v-.191zm2.83-.831c.096.485.39.897.927.897.433 0 .595-.265.595-.522 0-.868-1.603-.588-1.603-1.772 0-.412.331-.941 1.14-.941.235 0 .551.066.837.214l.052.749h-.169c-.073-.463-.33-.727-.801-.727-.294 0-.573.168-.573.484 0 .861 1.705.596 1.705 1.75 0 .485-.39 1-1.265 1-.293 0-.64-.103-.896-.25l-.081-.845.132-.037zm8.748-2.779h-.183c-.14-.86-.75-1.206-1.573-1.206-.847 0-2.074.566-2.074 2.33 0 1.486 1.06 2.552 2.191 2.552.727 0 1.331-.5 1.478-1.272l.17.044-.17 1.073c-.309.192-1.14.39-1.625.39-1.72 0-2.808-1.11-2.808-2.764 0-1.507 1.345-2.588 2.786-2.588.595 0 1.169.191 1.735.39l.073 1.05zm.266 3.61h.139c.206 0 .353 0 .353-.244v-4.093c0-.479-.11-.493-.39-.574v-.118c.294-.095.603-.227.758-.316.08-.044.139-.081.16-.081.046 0 .06.044.06.103v5.08c0 .243.162.243.368.243h.124v.19c-.25 0-.506-.014-.771-.014s-.53.007-.801.015v-.191zm4.72-.213c0 .132.08.139.205.139.088 0 .198-.007.294-.007v.155c-.316.029-.919.183-1.059.227l-.037-.022v-.596c-.44.36-.779.618-1.301.618-.397 0-.809-.258-.809-.874v-1.883c0-.191-.029-.375-.44-.411v-.14c.265-.008.852-.051.948-.051.081 0 .081.05.081.213v1.896c0 .221 0 .853.64.853.25 0 .58-.191.889-.448v-1.978c0-.147-.353-.228-.617-.301v-.132c.66-.045 1.073-.103 1.146-.103.06 0 .06.05.06.132v2.712zm1.462-2.427c.294-.25.691-.53 1.096-.53.852 0 1.367.744 1.367 1.545 0 .963-.706 1.926-1.758 1.926-.543 0-.83-.177-1.021-.258l-.22.17-.154-.08c.065-.434.102-.86.102-1.31v-3.16c0-.479-.11-.493-.39-.574v-.118a4.54 4.54 0 00.757-.316c.082-.044.14-.081.163-.081.043 0 .058.044.058.103v2.683zm0 2c0 .28.265.75.758.75.786 0 1.117-.772 1.117-1.427 0-.793-.603-1.455-1.176-1.455-.273 0-.5.177-.699.346v1.786zM6.68 26.658h.056c.144 0 .296-.02.296-.228v-2.095c0-.209-.152-.228-.296-.228H6.68v-.12c.156 0 .396.015.592.015.2 0 .44-.016.628-.016v.12h-.056c-.144 0-.296.02-.296.229v2.095c0 .209.152.228.296.228H7.9v.12c-.192 0-.432-.015-.632-.015-.196 0-.432.016-.588.016v-.12z" fill="#1A1919"></path>
      <path fill-rule="evenodd" clip-rule="evenodd" d="M7.9 26.796c-.193 0-.433-.016-.632-.016-.196 0-.431.016-.588.016h-.018v-.155h.074c.145-.003.277-.015.278-.21v-2.096c-.001-.196-.133-.209-.278-.211h-.074v-.155h.018c.157 0 .397.015.592.015.2 0 .439-.015.628-.015h.018v.155h-.074c-.145.002-.278.015-.279.21v2.096c.001.196.134.208.28.211h.073v.155H7.9zm-.017-.034v-.085h-.038c-.143 0-.313-.025-.314-.246v-2.095c0-.222.171-.246.314-.246h.038v-.086c-.184 0-.416.017-.61.017-.19 0-.42-.015-.575-.017v.086h.038c.143 0 .313.024.313.246v2.095c0 .221-.17.246-.313.246h-.038v.085c.155-.001.381-.016.57-.016.196 0 .427.015.615.016zm2.765-.772l.008-.008v-1.5c0-.328-.228-.376-.348-.376h-.088v-.12c.188 0 .372.016.56.016.164 0 .329-.016.492-.016v.12h-.06c-.168 0-.356.032-.356.508v1.82c0 .14.004.28.024.405h-.153l-2.06-2.297v1.649c0 .348.068.467.376.467h.069v.12c-.172 0-.344-.015-.516-.015-.18 0-.364.016-.544.016v-.12h.056c.276 0 .36-.189.36-.508v-1.685a.359.359 0 00-.364-.36h-.052v-.12c.151 0 .308.016.46.016.12 0 .236-.016.356-.016l1.78 2.004z" fill="#1A1919"></path>
      <path fill-rule="evenodd" clip-rule="evenodd" d="M10.88 26.856l-.165-.006-2.03-2.263v1.604c.005.348.057.446.359.45h.085v.155h-.017c-.173 0-.346-.016-.516-.016-.18 0-.363.016-.544.016h-.018v-.155h.074c.264-.001.34-.171.343-.49v-1.684a.342.342 0 00-.347-.343h-.07v-.155h.018c.152 0 .309.015.46.015.118 0 .234-.015.369-.009l1.758 1.979v-1.471c-.002-.318-.214-.357-.33-.36h-.107v-.154h.018c.189 0 .373.015.56.015.163 0 .327-.015.492-.015h.018v.155h-.077c-.166.004-.335.019-.34.49v1.82c0 .14.004.28.024.402l.003.02h-.02zm-.152-.035h.133a2.704 2.704 0 01-.021-.386v-1.82c0-.48.2-.525.373-.525h.042v-.086c-.157.002-.315.016-.474.016-.184 0-.362-.014-.542-.016v.085h.07c.123 0 .365.055.365.394l-.005 1.513-.008.007-.014.013-1.779-2.012c-.119 0-.234.016-.356.016-.147 0-.297-.014-.442-.016v.085h.035c.187 0 .38.144.38.378v1.685c0 .32-.089.524-.376.525h-.04v.085c.174-.001.353-.016.527-.016.167 0 .334.015.499.016v-.085h-.05c-.315 0-.393-.138-.394-.485v-1.694l2.077 2.323zm1.143-2.635c-.3 0-.312.073-.372.364h-.12c.016-.112.036-.224.048-.34.016-.112.024-.224.024-.34h.096c.033.12.133.116.241.116h2.063c.109 0 .209-.004.217-.124l.095.017c-.015.107-.031.215-.043.324-.008.108-.008.215-.008.323l-.12.045c-.008-.148-.028-.385-.296-.385h-.656v2.129c0 .308.14.343.332.343h.076v.12c-.156 0-.436-.015-.652-.015-.24 0-.52.016-.677.016v-.12h.077c.22 0 .332-.02.332-.336v-2.137h-.657z" fill="#1A1919"></path>
      <path fill-rule="evenodd" clip-rule="evenodd" d="M13.448 26.796c-.157 0-.437-.016-.652-.016-.24 0-.52.016-.677.016h-.017v-.155h.094c.22-.005.309-.008.314-.318v-2.12h-.639v-.034h.673v2.154c0 .321-.13.354-.348.354h-.06v.084c.158 0 .428-.015.66-.015.208 0 .476.014.634.015v-.084h-.058c-.194 0-.35-.048-.35-.362v-2.146h.674c.268 0 .304.229.312.377l.087-.031c0-.105 0-.21.007-.315a9.75 9.75 0 01.041-.307l-.06-.01c-.019.116-.132.122-.232.12h-2.084c-.094 0-.197-.004-.233-.115h-.066c0 .11-.008.218-.023.324-.012.11-.03.216-.045.322h.086c.052-.28.086-.37.385-.365v.034c-.296.006-.29.056-.355.352l-.002.013h-.155l.002-.02c.017-.112.037-.225.049-.34.017-.112.024-.223.024-.337v-.018h.127l.003.012c.027.101.101.102.203.104h2.084c.112-.002.193-.003.2-.108v-.019l.02.004.112.017-.003.018a9.392 9.392 0 00-.043.322c-.008.108-.008.215-.008.323v.012l-.011.005-.142.052v-.023c-.012-.15-.027-.369-.28-.369h-.639v2.112c.004.301.124.322.315.326h.093v.155h-.017zm.843-.138h.056c.144 0 .296-.02.296-.228v-2.095c0-.209-.152-.228-.296-.228h-.056v-.12c.243 0 .66.015.996.015.336 0 .752-.016 1.024-.016-.007.172-.003.437.008.613l-.12.032c-.02-.26-.067-.468-.488-.468h-.555v1.047h.475c.24 0 .292-.135.316-.352h.12a9.152 9.152 0 000 .924l-.12.024c-.024-.24-.035-.395-.312-.395h-.479v.931c0 .26.231.26.487.26.48 0 .692-.032.812-.487l.112.027a9.04 9.04 0 00-.136.637c-.256 0-.716-.016-1.075-.016-.361 0-.837.016-1.065.016v-.12z" fill="#1A1919"></path>
      <path fill-rule="evenodd" clip-rule="evenodd" d="M16.431 26.796c-.257 0-.717-.017-1.076-.017-.36 0-.835.017-1.064.017h-.017v-.155h.073c.145-.002.277-.015.279-.21v-2.096c-.002-.196-.134-.209-.279-.211h-.073v-.155h.017c.244 0 .66.015.996.015.336 0 .751-.015 1.024-.015h.017v.018a6.365 6.365 0 00.008.61v.015l-.013.004-.14.036-.001-.02c-.024-.26-.059-.449-.47-.453h-.54v1.014h.459c.23-.003.272-.12.3-.336v-.016h.154v.018a9.486 9.486 0 000 .923v.014l-.015.004-.139.027v-.019c-.029-.244-.03-.378-.296-.38h-.463v.914c0 .243.21.242.471.243.482-.002.675-.026.795-.475l.004-.016.017.003.128.033-.003.017a9.11 9.11 0 00-.136.635l-.003.014h-.014zm-.014-.034c.035-.202.08-.404.13-.606l-.08-.02c-.119.448-.351.488-.823.485-.252 0-.504 0-.506-.278v-.949h.498c.28-.003.307.166.327.393l.087-.017a8.502 8.502 0 010-.894h-.087c-.022.21-.087.355-.331.352h-.494v-1.082h.574c.416-.004.485.212.503.463l.086-.023a6.796 6.796 0 01-.007-.582c-.272.002-.678.016-1.007.016-.328 0-.733-.014-.978-.016v.085h.039c.142 0 .313.025.313.247v2.095c0 .221-.17.245-.313.246h-.039v.085c.233 0 .696-.016 1.047-.016.353 0 .803.015 1.061.016zm.69-2.352c0-.292-.16-.304-.284-.304h-.072v-.12c.128 0 .376.016.62.016.24 0 .432-.016.644-.016.503 0 .952.136.952.705 0 .36-.24.58-.556.704l.684 1.023c.112.17.191.217.388.24v.12c-.132 0-.26-.015-.392-.015-.124 0-.253.016-.376.016a11.07 11.07 0 01-.832-1.297h-.264v.857c0 .308.144.32.327.32h.073v.12c-.229 0-.46-.016-.688-.016-.192 0-.38.016-.58.016v-.12h.072c.148 0 .284-.068.284-.216V24.41zm.512.928h.196c.4 0 .616-.152.616-.624 0-.356-.228-.584-.585-.584-.12 0-.171.013-.227.017v1.19z" fill="#1A1919"></path>
      <path fill-rule="evenodd" clip-rule="evenodd" d="M19.483 26.796c-.134 0-.261-.016-.393-.016-.122 0-.25.016-.389.01-.307-.404-.57-.833-.828-1.29h-.237v.838c.005.301.125.299.31.303h.09v.155h-.018c-.228 0-.46-.016-.687-.016-.191 0-.38.016-.58.016h-.018v-.155h.09c.144 0 .265-.064.266-.198V24.41c-.003-.284-.142-.282-.266-.286h-.09v-.155h.018c.13 0 .376.015.62.015.239 0 .43-.015.644-.015.504.001.968.14.97.721 0 .361-.24.587-.547.712l.671 1.007c.112.166.182.207.376.232l.015.002v.153h-.017zm-1.863-1.33h.273l.005.009c.26.46.523.891.818 1.287.122 0 .25-.016.375-.016.127 0 .251.014.375.016v-.088c-.187-.023-.275-.08-.385-.245l-.696-1.041.02-.009c.313-.123.545-.337.545-.688 0-.555-.431-.684-.934-.687-.211 0-.403.017-.644.017-.235 0-.473-.015-.604-.017v.085h.056c.124 0 .3.021.3.322v2.033c0 .16-.15.233-.3.233h-.056v.085c.193 0 .375-.016.563-.016.224 0 .45.015.67.016v-.085h-.054c-.182 0-.345-.022-.345-.338v-.873h.018zm0-.11h-.02V24.13h.016c.055-.005.108-.016.23-.016.364 0 .6.236.601.601 0 .478-.23.64-.633.64h-.196zm.195-.035c.396-.004.595-.141.6-.606-.003-.35-.22-.566-.569-.568-.108 0-.159.01-.21.015v1.159h.179zm4.384.669l.007-.008v-1.5c0-.328-.227-.376-.348-.376h-.087v-.12c.188 0 .371.016.56.016.164 0 .327-.016.492-.016v.12h-.06c-.168 0-.356.032-.356.508v1.82c0 .14.004.28.024.405h-.152l-2.06-2.297v1.649c0 .348.068.467.376.467h.068v.12c-.172 0-.344-.015-.516-.015-.18 0-.364.016-.544.016v-.12h.055c.276 0 .36-.189.36-.508v-1.685a.359.359 0 00-.363-.36h-.052v-.12c.151 0 .308.016.46.016.119 0 .235-.016.356-.016l1.78 2.004z" fill="#1A1919"></path>
      <path fill-rule="evenodd" clip-rule="evenodd" d="M22.43 26.856l-.164-.006-2.03-2.262v1.602c.004.349.057.447.359.451h.085v.155h-.018c-.173 0-.345-.017-.516-.017-.178 0-.363.017-.544.017h-.017v-.155h.073c.264 0 .34-.171.343-.49v-1.685a.341.341 0 00-.346-.342h-.07v-.155h.017c.153 0 .31.015.46.015.118 0 .234-.015.368-.01l1.759 1.98v-1.471c-.001-.318-.214-.357-.33-.36h-.106v-.154h.017c.19 0 .374.015.56.015.164 0 .328-.015.492-.015h.018v.155h-.077c-.165.004-.335.019-.34.49v1.82c0 .14.004.28.025.402l.002.02h-.02zm-.15-.035h.13a2.727 2.727 0 01-.02-.386v-1.82c0-.48.202-.524.374-.525h.042v-.086c-.158.002-.316.016-.475.016-.183 0-.362-.014-.543-.016v.085h.071c.123.002.366.055.366.394l-.006 1.513-.007.007-.013.014-1.78-2.013c-.119 0-.235.016-.355.016-.149 0-.298-.014-.444-.016v.085h.035a.377.377 0 01.381.378v1.684c0 .321-.09.526-.377.526h-.039v.085c.173-.001.351-.016.527-.016.168 0 .334.015.5.016v-.085h-.052c-.314 0-.393-.137-.394-.486V24.5l2.079 2.323zm1.186-.614c-.04.135-.088.24-.088.311 0 .12.168.14.3.14h.044v.12a7.17 7.17 0 00-.917 0v-.12h.025c.156 0 .288-.092.348-.26l.64-1.835c.052-.149.124-.348.148-.497a2.03 2.03 0 00.364-.172c.013-.004.02-.008.032-.008s.02 0 .028.013l.036.1.737 2.092c.048.14.095.287.146.408.05.112.133.16.266.16h.024v.12a11.278 11.278 0 00-1.153 0v-.12h.044c.092 0 .249-.016.249-.116 0-.052-.037-.16-.081-.289l-.156-.463h-.908l-.128.416zm.584-1.773h-.008l-.372 1.133h.748l-.368-1.133z" fill="#1A1919"></path>
      <path fill-rule="evenodd" clip-rule="evenodd" d="M25.597 26.796c-.18-.008-.36-.017-.55-.017-.196 0-.396.01-.6.017h-.018v-.156h.061c.093 0 .23-.02.23-.097a1.196 1.196 0 00-.078-.283l-.153-.452h-.882l-.124.404c-.04.136-.09.242-.089.307.002.097.151.121.284.121h.061v.157l-.018-.001c-.16-.008-.323-.017-.483-.017-.143 0-.287.01-.43.017h-.02v-.156h.042c.149 0 .273-.085.33-.247l.642-1.836c.051-.148.124-.348.158-.507.126-.043.287-.124.364-.172.01-.004.022-.009.038-.009a.05.05 0 01.044.023c.012.033.024.069.037.1l.736 2.093c.047.14.095.288.147.406.047.107.12.15.249.15h.04v.156l-.018-.001zm-1.133-.035c.198-.007.392-.015.584-.015.185 0 .36.008.533.015v-.084h-.006c-.137.001-.231-.053-.28-.17-.052-.122-.1-.27-.148-.41l-.737-2.093-.034-.096c-.004-.004-.003-.004-.006-.004h-.007c-.008 0-.013.003-.023.005a1.48 1.48 0 01-.357.16c-.024.152-.096.352-.148.5l-.64 1.836a.381.381 0 01-.364.272h-.007v.084c.137-.007.276-.015.415-.015.154 0 .312.008.465.015v-.084h-.025c-.131-.002-.313-.016-.318-.158 0-.079.05-.181.089-.316l.017.005-.017-.006.132-.427h.932l.16.475c.046.128.082.235.082.293-.006.123-.174.132-.265.134h-.027v.084zm-.818-1.177l.383-1.167h.021v.018h-.004.004v-.018h.012l.38 1.167h-.796zm.048-.035h.7l-.348-1.072-.352 1.072zm2.08-1.363c-.3 0-.312.073-.372.364h-.12c.015-.112.036-.224.048-.34.016-.112.024-.224.024-.34h.096c.032.12.132.116.24.116h2.064c.108 0 .208-.004.216-.124l.095.017c-.014.107-.03.215-.043.324-.009.108-.009.215-.009.323l-.12.045c-.006-.148-.026-.385-.295-.385h-.656v2.129c0 .308.14.343.332.343h.076v.12c-.156 0-.435-.015-.652-.015-.24 0-.52.016-.676.016v-.12h.076c.22 0 .332-.02.332-.336v-2.137h-.656z" fill="#1A1919"></path>
      <path fill-rule="evenodd" clip-rule="evenodd" d="M27.35 26.796c-.157 0-.437-.016-.652-.016-.24 0-.52.016-.676.016h-.018v-.155h.094c.22-.005.31-.008.314-.318v-2.12h-.638v-.034h.673v2.154c0 .321-.13.353-.349.354h-.059v.085c.158-.002.427-.017.659-.017.209 0 .477.015.635.017v-.085h-.06c-.192-.001-.348-.048-.348-.362v-2.146h.673c.269 0 .304.229.312.377l.086-.031c0-.105.001-.21.01-.314.01-.103.025-.206.04-.308l-.06-.01c-.02.116-.132.123-.232.12H25.67c-.094.002-.196-.004-.232-.116h-.066c0 .111-.008.219-.024.325-.011.11-.03.216-.046.322h.086c.053-.28.088-.37.387-.365v.034c-.296.006-.29.056-.355.352l-.003.013h-.154l.002-.02c.017-.112.037-.225.048-.34.016-.112.024-.223.024-.337v-.018h.127l.003.012c.028.101.101.102.203.104h2.085c.111-.002.192-.003.199-.108v-.019l.02.004.113.017-.003.018a8.299 8.299 0 00-.044.322c-.008.108-.008.215-.008.323v.012l-.012.005-.141.052v-.023c-.011-.15-.027-.369-.28-.369h-.639v2.112c.004.301.124.322.315.326h.093v.155h-.017zm.864-.138h.056c.144 0 .295-.02.295-.228v-2.095c0-.209-.151-.228-.295-.228h-.056v-.12c.156 0 .395.015.591.015.2 0 .44-.016.63-.016v.12h-.057c-.145 0-.297.02-.297.229v2.095c0 .209.152.228.297.228h.056v.12c-.192 0-.432-.015-.632-.015-.197 0-.432.016-.588.016v-.12z" fill="#1A1919"></path>
      <path fill-rule="evenodd" clip-rule="evenodd" d="M29.434 26.796c-.193 0-.433-.017-.632-.017-.196 0-.432.017-.588.017h-.018v-.155h.074c.144-.002.277-.015.278-.21v-2.096c-.001-.196-.134-.209-.278-.211h-.074v-.155h.017c.157 0 .397.015.592.015.2 0 .44-.015.629-.015h.017v.155h-.073c-.146.002-.278.015-.28.21v2.096c.002.196.134.209.28.211h.073v.155h-.017zm-.018-.034v-.085h-.037c-.144 0-.314-.025-.314-.246v-2.095c0-.222.17-.246.314-.246h.037v-.086c-.184.002-.416.016-.61.016-.19 0-.42-.014-.574-.016v.085h.038c.143 0 .313.025.313.247v2.095c0 .221-.17.246-.313.246h-.038v.085c.154-.002.38-.016.57-.016.195 0 .426.015.614.016zm1.614-2.836c.852 0 1.532.529 1.532 1.381 0 .92-.66 1.532-1.512 1.532-.849 0-1.497-.576-1.497-1.437 0-.831.644-1.476 1.476-1.476zm.06 2.737c.776 0 .911-.685.911-1.268 0-.585-.315-1.293-.98-1.293-.7 0-.908.625-.908 1.16 0 .716.329 1.4.977 1.4z" fill="#1A1919"></path>
      <path fill-rule="evenodd" clip-rule="evenodd" d="M29.536 25.402a1.475 1.475 0 011.493-1.493v.035a1.44 1.44 0 00-1.46 1.458c.002.85.64 1.418 1.48 1.419.844 0 1.495-.603 1.496-1.515-.001-.841-.67-1.361-1.516-1.362v-.035c.859 0 1.548.535 1.55 1.397-.001.93-.67 1.548-1.53 1.55-.855-.002-1.512-.584-1.513-1.454zm.56-.14c.001-.538.211-1.177.925-1.177.68.001.996.722.998 1.31-.002.583-.139 1.284-.93 1.284v-.034c.761 0 .893-.667.895-1.25 0-.58-.312-1.274-.963-1.275-.686 0-.889.61-.89 1.142 0 .713.325 1.382.959 1.383v.034c-.664 0-.993-.697-.994-1.417zm5.161.728l.009-.008v-1.5c0-.328-.23-.376-.35-.376h-.086v-.12c.187 0 .372.016.559.016.164 0 .328-.016.493-.016v.12h-.06c-.168 0-.357.032-.357.508v1.82c0 .14.004.28.025.405h-.153l-2.06-2.297v1.649c0 .348.068.467.376.467h.068v.12c-.172 0-.344-.015-.516-.015-.18 0-.364.016-.544.016v-.12h.056c.277 0 .36-.189.36-.508v-1.685a.358.358 0 00-.364-.36h-.052v-.12c.152 0 .308.016.46.016.12 0 .235-.016.356-.016l1.78 2.004z" fill="#1A1919"></path>
      <path fill-rule="evenodd" clip-rule="evenodd" d="M35.49 26.856l-.166-.006-2.03-2.262v1.603c.005.348.058.446.358.45h.086v.155h-.017c-.173 0-.345-.016-.516-.016-.18 0-.363.016-.545.016h-.016v-.156h.073c.264 0 .34-.17.343-.489v-1.685a.341.341 0 00-.347-.342h-.069v-.155h.016c.154 0 .31.015.46.015.12 0 .235-.015.37-.009l1.758 1.979v-1.471c-.002-.318-.215-.357-.331-.36h-.106v-.154h.019c.188 0 .372.015.559.015.163 0 .326-.015.493-.015h.017v.155h-.078c-.165.004-.335.02-.338.49v1.82c0 .14.003.28.022.402l.004.02h-.02zm-.152-.035h.131a2.827 2.827 0 01-.02-.386v-1.82c0-.48.201-.524.373-.525h.043v-.086c-.159.002-.316.016-.476.016-.182 0-.36-.014-.542-.016v.085h.07c.124.002.365.056.365.394l-.004 1.513-.008.007-.012.014-1.78-2.013c-.119 0-.235.016-.356.016-.148 0-.298-.014-.444-.016v.085h.036a.377.377 0 01.38.378v1.685c0 .32-.089.524-.376.525h-.04v.085c.174-.001.352-.016.528-.016.167 0 .333.015.498.016v-.085h-.051c-.314 0-.393-.137-.393-.485v-1.694l2.078 2.323zm1.186-.614c-.039.135-.087.24-.087.311 0 .12.168.14.3.14h.044v.12a7.125 7.125 0 00-.916 0v-.12h.023a.36.36 0 00.348-.26l.641-1.835c.052-.149.124-.348.147-.497.129-.044.288-.123.365-.172.012-.004.02-.008.032-.008s.02 0 .028.013l.036.1.736 2.092c.047.14.096.287.148.408.048.112.132.16.264.16h.024v.12a11.284 11.284 0 00-1.152 0v-.12h.044c.091 0 .248-.016.248-.116 0-.052-.036-.16-.08-.289l-.156-.463h-.908l-.129.416zm.585-1.773h-.008l-.373 1.133h.75l-.369-1.133z" fill="#1A1919"></path>
      <path fill-rule="evenodd" clip-rule="evenodd" d="M38.656 26.796c-.18-.007-.36-.016-.551-.016-.195 0-.396.009-.6.016h-.017v-.155h.06c.093 0 .231-.021.231-.098a1.242 1.242 0 00-.08-.283l-.151-.452h-.884l-.123.404c-.04.137-.087.242-.087.306 0 .098.15.123.282.123h.061v.156l-.018-.001c-.16-.007-.323-.016-.483-.016-.143 0-.286.009-.43.016h-.018v-.155h.04c.15 0 .274-.086.332-.248l.64-1.836c.051-.148.124-.348.159-.507a2.15 2.15 0 00.364-.172c.01-.004.021-.009.038-.009.01 0 .031.002.044.024.012.031.023.068.036.1l.736 2.092c.048.14.096.288.148.407.047.106.12.148.247.15h.042v.155l-.018-.001zm-1.134-.035c.198-.007.393-.015.584-.015.185 0 .36.008.534.015v-.084h-.007c-.136 0-.23-.053-.28-.17-.053-.122-.1-.27-.148-.41l-.736-2.093a4.153 4.153 0 01-.034-.095c-.003-.005-.003-.005-.006-.005h-.007c-.009 0-.013.003-.023.006a1.549 1.549 0 01-.356.16c-.025.151-.098.35-.15.5l-.64 1.835a.38.38 0 01-.364.272h-.006v.084c.137-.007.275-.015.414-.015.155 0 .313.008.467.015v-.084h-.027c-.13-.002-.313-.015-.318-.158.001-.079.05-.181.09-.316l.016.005-.016-.006.131-.427h.933l.16.475c.045.128.081.235.081.293-.006.123-.174.132-.265.134h-.027v.084zm-.818-1.177l.384-1.167h.021v.018h-.004.004v-.018h.012l.378 1.167h-.795zm.048-.035h.7l-.348-1.071-.352 1.071zm2.913.837c0 .161.111.209.24.225.163.012.343.012.528-.008a.57.57 0 00.384-.217c.063-.087.1-.2.124-.287h.115c-.044.228-.1.452-.148.68-.35 0-.704-.016-1.055-.016-.353 0-.705.016-1.056.016v-.12h.055c.144 0 .3-.02.3-.268v-2.056c0-.209-.156-.229-.3-.229h-.055v-.12c.211 0 .42.016.631.016.205 0 .404-.016.609-.016v.12h-.1c-.153 0-.272.005-.272.217v2.063z" fill="#1A1919"></path>
      <path fill-rule="evenodd" clip-rule="evenodd" d="M40.909 26.796c-.353 0-.706-.016-1.056-.016-.352 0-.704.016-1.057.016h-.017v-.155h.073c.145-.003.282-.013.284-.25v-2.057c-.002-.195-.139-.208-.284-.21h-.073v-.155h.017c.213 0 .421.015.632.015.204 0 .403-.015.609-.015h.016v.155h-.117c-.155.004-.251-.003-.255.199v2.063c.001.15.1.19.225.208a3.274 3.274 0 00.524-.008.56.56 0 00.373-.21.9.9 0 00.12-.282l.004-.013h.15l-.003.021c-.045.23-.1.452-.149.68l-.003.014h-.013zm-.014-.034c.046-.217.098-.43.141-.646h-.082a.906.906 0 01-.123.282.594.594 0 01-.396.223 3.069 3.069 0 01-.532.007c-.13-.014-.256-.07-.256-.24v-2.065c0-.222.14-.233.29-.233h.083v-.086c-.198.002-.392.017-.591.017-.207 0-.41-.015-.614-.017v.085h.038c.142 0 .317.025.317.246v2.056c0 .26-.174.286-.317.286h-.038v.085c.345 0 .691-.016 1.038-.016.348 0 .695.015 1.042.016zm.113-2.889c.241 0 .421.185.421.422s-.18.42-.421.42a.413.413 0 01-.422-.42c0-.237.18-.422.422-.422zm0 .764a.34.34 0 00.333-.342.34.34 0 00-.333-.343.34.34 0 00-.334.343.34.34 0 00.334.342zm-.21-.12v-.02c.052-.008.061-.006.061-.038v-.312c0-.044-.004-.06-.06-.057v-.021h.217c.074 0 .142.035.142.112 0 .062-.041.109-.1.127l.07.096a.449.449 0 00.092.1v.013h-.082c-.039 0-.074-.083-.151-.194h-.047v.14c0 .028.01.026.062.034v.02h-.204zm.142-.222h.05c.054 0 .08-.041.08-.108s-.04-.09-.083-.09h-.047v.198z" fill="#1A1919"></path>
      <path fill-rule="evenodd" clip-rule="evenodd" d="M16.023 9.864a6.775 6.775 0 1113.55 0 6.775 6.775 0 01-13.55 0z" fill="#FFFFFE"></path>
      <path fill-rule="evenodd" clip-rule="evenodd" d="M26.895 9.73a4.076 4.076 0 00-2.616-3.8v7.6a4.076 4.076 0 002.616-3.8zm-5.53 3.8v-7.6a4.08 4.08 0 00-2.615 3.8 4.078 4.078 0 002.614 3.8zm1.457-10.224a6.425 6.425 0 000 12.847 6.424 6.424 0 000-12.847zm-.015 13.454c-3.883.018-7.078-3.127-7.078-6.956 0-4.185 3.195-7.08 7.078-7.078h1.82c3.836-.001 7.337 2.892 7.337 7.078 0 3.827-3.501 6.956-7.338 6.956h-1.82z" fill="#184977"></path>
    </g>
    <defs>
      <clipPath id="clip0">
        <path fill="#fff" d="M0 0h48v29.981H0z"></path>
      </clipPath>
    </defs>
  </symbol>
  <symbol fill="none" xmlns="http://www.w3.org/2000/svg" viewBox="0 0 48 30" id="icons-diners">
    <g clip-path="url(#clip0)">
      <path fill="#fff" d="M0 0h48v29.981H0z"></path>
      <mask id="a" maskUnits="userSpaceOnUse" x="0" y="0" width="48" height="30">
        <path fill-rule="evenodd" clip-rule="evenodd" d="M0 0h48v29.981H0V0z" fill="#fff"></path>
      </mask>
      <g mask="url(#a)" fill-rule="evenodd" clip-rule="evenodd">
        <path d="M47.697 27.15c0 1.48-1.438 2.68-3.213 2.68H3.515c-1.774 0-3.212-1.2-3.212-2.68V2.982c0-1.48 1.438-2.68 3.212-2.68h40.97c1.774 0 3.212 1.2 3.212 2.68V27.15z" fill="#FFFFFE"></path>
        <path d="M3.49 29.981C1.566 29.978 0 28.681 0 27.07V2.912C0 1.299 1.567.002 3.49 0h41.02c1.923.003 3.489 1.3 3.49 2.912V27.07c-.001 1.612-1.567 2.909-3.49 2.911H3.49zM.544 2.911V27.07c.003 1.347 1.313 2.446 2.944 2.446H44.51c1.63 0 2.942-1.1 2.944-2.446V2.912C47.452 1.564 46.141.465 44.51.465H3.49C1.857.465.547 1.565.544 2.912z" fill="#184977"></path>
      </g>
      <path fill-rule="evenodd" clip-rule="evenodd" d="M7.364 18.068c0-.661-.345-.617-.676-.625v-.19c.287.013.58.013.868.013.308 0 .727-.014 1.272-.014 1.903 0 2.94 1.272 2.94 2.573 0 .729-.426 2.559-3.029 2.559-.375 0-.72-.015-1.066-.015-.33 0-.654.007-.985.015v-.191c.44-.045.655-.06.676-.56v-3.565zm.72 3.448c0 .566.405.632.765.632 1.589 0 2.11-1.198 2.11-2.293 0-1.375-.882-2.367-2.3-2.367-.303 0-.442.021-.575.03v3.998zm3.942.677h.139c.206 0 .353 0 .353-.244v-1.992c0-.323-.11-.367-.383-.514v-.117c.346-.104.758-.243.787-.265a.26.26 0 01.133-.037c.036 0 .05.044.05.103v2.822c0 .244.163.244.369.244h.124v.19c-.25 0-.507-.014-.771-.014-.265 0-.53.007-.801.015v-.191zm.786-4.301a.377.377 0 01-.36-.367c0-.185.177-.354.36-.354.19 0 .36.155.36.354a.367.367 0 01-.36.367zm1.485 2.11c0-.272-.081-.345-.426-.485v-.14c.316-.103.617-.199.97-.353.022 0 .043.014.043.073v.478c.42-.3.78-.551 1.274-.551.624 0 .844.456.844 1.03v1.895c0 .244.163.244.368.244h.133v.19c-.258 0-.515-.014-.78-.014s-.53.007-.794.015v-.191h.132c.206 0 .353 0 .353-.244v-1.903c0-.42-.256-.625-.676-.625-.235 0-.61.19-.854.353v2.175c0 .244.163.244.369.244h.132v.19c-.257 0-.514-.014-.78-.014-.264 0-.529.007-.793.015v-.191h.133c.205 0 .352 0 .352-.244v-1.947zm3.764.353c-.014.066-.014.176 0 .426.044.699.493 1.272 1.08 1.272.406 0 .722-.22.994-.492l.102.103c-.338.448-.757.83-1.36.83-1.169 0-1.404-1.132-1.404-1.602 0-1.442.97-1.868 1.485-1.868.596 0 1.236.375 1.243 1.154 0 .045 0 .088-.007.133l-.067.044h-2.066zm1.302-.235c.184 0 .205-.096.205-.185 0-.374-.228-.675-.64-.675-.448 0-.756.33-.845.86h1.28zm1.007 2.073h.198c.206 0 .353 0 .353-.244v-2.065c0-.227-.272-.272-.382-.33v-.11c.536-.229.83-.42.898-.42.043 0 .065.022.065.096v.661h.015c.183-.286.493-.757.94-.757.185 0 .42.125.42.39 0 .198-.14.375-.345.375-.229 0-.229-.177-.486-.177-.125 0-.537.17-.537.61v1.727c0 .244.147.244.353.244h.411v.19c-.404-.007-.712-.014-1.028-.014-.302 0-.61.007-.875.015v-.191zm2.83-.831c.096.485.39.897.927.897.433 0 .595-.265.595-.522 0-.868-1.603-.588-1.603-1.772 0-.412.331-.941 1.14-.941.235 0 .551.066.837.214l.052.749h-.169c-.073-.463-.33-.727-.801-.727-.294 0-.573.168-.573.484 0 .861 1.705.596 1.705 1.75 0 .485-.39 1-1.265 1-.293 0-.64-.103-.896-.25l-.081-.845.132-.037zm8.748-2.779h-.183c-.14-.86-.75-1.206-1.573-1.206-.847 0-2.074.566-2.074 2.33 0 1.486 1.06 2.552 2.191 2.552.727 0 1.331-.5 1.478-1.272l.17.044-.17 1.073c-.309.192-1.14.39-1.625.39-1.72 0-2.808-1.11-2.808-2.764 0-1.507 1.345-2.588 2.786-2.588.595 0 1.169.191 1.735.39l.073 1.05zm.266 3.61h.139c.206 0 .353 0 .353-.244v-4.093c0-.479-.11-.493-.39-.574v-.118c.294-.095.603-.227.758-.316.08-.044.139-.081.16-.081.046 0 .06.044.06.103v5.08c0 .243.162.243.368.243h.124v.19c-.25 0-.506-.014-.771-.014s-.53.007-.801.015v-.191zm4.72-.213c0 .132.08.139.205.139.088 0 .198-.007.294-.007v.155c-.316.029-.919.183-1.059.227l-.037-.022v-.596c-.44.36-.779.618-1.301.618-.397 0-.809-.258-.809-.874v-1.883c0-.191-.029-.375-.44-.411v-.14c.265-.008.852-.051.948-.051.081 0 .081.05.081.213v1.896c0 .221 0 .853.64.853.25 0 .58-.191.889-.448v-1.978c0-.147-.353-.228-.617-.301v-.132c.66-.045 1.073-.103 1.146-.103.06 0 .06.05.06.132v2.712zm1.462-2.427c.294-.25.691-.53 1.096-.53.852 0 1.367.744 1.367 1.545 0 .963-.706 1.926-1.758 1.926-.543 0-.83-.177-1.021-.258l-.22.17-.154-.08c.065-.434.102-.86.102-1.31v-3.16c0-.479-.11-.493-.39-.574v-.118a4.54 4.54 0 00.757-.316c.082-.044.14-.081.163-.081.043 0 .058.044.058.103v2.683zm0 2c0 .28.265.75.758.75.786 0 1.117-.772 1.117-1.427 0-.793-.603-1.455-1.176-1.455-.273 0-.5.177-.699.346v1.786zM6.68 26.658h.056c.144 0 .296-.02.296-.228v-2.095c0-.209-.152-.228-.296-.228H6.68v-.12c.156 0 .396.015.592.015.2 0 .44-.016.628-.016v.12h-.056c-.144 0-.296.02-.296.229v2.095c0 .209.152.228.296.228H7.9v.12c-.192 0-.432-.015-.632-.015-.196 0-.432.016-.588.016v-.12z" fill="#1A1919"></path>
      <path fill-rule="evenodd" clip-rule="evenodd" d="M7.9 26.796c-.193 0-.433-.016-.632-.016-.196 0-.431.016-.588.016h-.018v-.155h.074c.145-.003.277-.015.278-.21v-2.096c-.001-.196-.133-.209-.278-.211h-.074v-.155h.018c.157 0 .397.015.592.015.2 0 .439-.015.628-.015h.018v.155h-.074c-.145.002-.278.015-.279.21v2.096c.001.196.134.208.28.211h.073v.155H7.9zm-.017-.034v-.085h-.038c-.143 0-.313-.025-.314-.246v-2.095c0-.222.171-.246.314-.246h.038v-.086c-.184 0-.416.017-.61.017-.19 0-.42-.015-.575-.017v.086h.038c.143 0 .313.024.313.246v2.095c0 .221-.17.246-.313.246h-.038v.085c.155-.001.381-.016.57-.016.196 0 .427.015.615.016zm2.765-.772l.008-.008v-1.5c0-.328-.228-.376-.348-.376h-.088v-.12c.188 0 .372.016.56.016.164 0 .329-.016.492-.016v.12h-.06c-.168 0-.356.032-.356.508v1.82c0 .14.004.28.024.405h-.153l-2.06-2.297v1.649c0 .348.068.467.376.467h.069v.12c-.172 0-.344-.015-.516-.015-.18 0-.364.016-.544.016v-.12h.056c.276 0 .36-.189.36-.508v-1.685a.359.359 0 00-.364-.36h-.052v-.12c.151 0 .308.016.46.016.12 0 .236-.016.356-.016l1.78 2.004z" fill="#1A1919"></path>
      <path fill-rule="evenodd" clip-rule="evenodd" d="M10.88 26.856l-.165-.006-2.03-2.263v1.604c.005.348.057.446.359.45h.085v.155h-.017c-.173 0-.346-.016-.516-.016-.18 0-.363.016-.544.016h-.018v-.155h.074c.264-.001.34-.171.343-.49v-1.684a.342.342 0 00-.347-.343h-.07v-.155h.018c.152 0 .309.015.46.015.118 0 .234-.015.369-.009l1.758 1.979v-1.471c-.002-.318-.214-.357-.33-.36h-.107v-.154h.018c.189 0 .373.015.56.015.163 0 .327-.015.492-.015h.018v.155h-.077c-.166.004-.335.019-.34.49v1.82c0 .14.004.28.024.402l.003.02h-.02zm-.152-.035h.133a2.704 2.704 0 01-.021-.386v-1.82c0-.48.2-.525.373-.525h.042v-.086c-.157.002-.315.016-.474.016-.184 0-.362-.014-.542-.016v.085h.07c.123 0 .365.055.365.394l-.005 1.513-.008.007-.014.013-1.779-2.012c-.119 0-.234.016-.356.016-.147 0-.297-.014-.442-.016v.085h.035c.187 0 .38.144.38.378v1.685c0 .32-.089.524-.376.525h-.04v.085c.174-.001.353-.016.527-.016.167 0 .334.015.499.016v-.085h-.05c-.315 0-.393-.138-.394-.485v-1.694l2.077 2.323zm1.143-2.635c-.3 0-.312.073-.372.364h-.12c.016-.112.036-.224.048-.34.016-.112.024-.224.024-.34h.096c.033.12.133.116.241.116h2.063c.109 0 .209-.004.217-.124l.095.017c-.015.107-.031.215-.043.324-.008.108-.008.215-.008.323l-.12.045c-.008-.148-.028-.385-.296-.385h-.656v2.129c0 .308.14.343.332.343h.076v.12c-.156 0-.436-.015-.652-.015-.24 0-.52.016-.677.016v-.12h.077c.22 0 .332-.02.332-.336v-2.137h-.657z" fill="#1A1919"></path>
      <path fill-rule="evenodd" clip-rule="evenodd" d="M13.448 26.796c-.157 0-.437-.016-.652-.016-.24 0-.52.016-.677.016h-.017v-.155h.094c.22-.005.309-.008.314-.318v-2.12h-.639v-.034h.673v2.154c0 .321-.13.354-.348.354h-.06v.084c.158 0 .428-.015.66-.015.208 0 .476.014.634.015v-.084h-.058c-.194 0-.35-.048-.35-.362v-2.146h.674c.268 0 .304.229.312.377l.087-.031c0-.105 0-.21.007-.315a9.75 9.75 0 01.041-.307l-.06-.01c-.019.116-.132.122-.232.12h-2.084c-.094 0-.197-.004-.233-.115h-.066c0 .11-.008.218-.023.324-.012.11-.03.216-.045.322h.086c.052-.28.086-.37.385-.365v.034c-.296.006-.29.056-.355.352l-.002.013h-.155l.002-.02c.017-.112.037-.225.049-.34.017-.112.024-.223.024-.337v-.018h.127l.003.012c.027.101.101.102.203.104h2.084c.112-.002.193-.003.2-.108v-.019l.02.004.112.017-.003.018a9.392 9.392 0 00-.043.322c-.008.108-.008.215-.008.323v.012l-.011.005-.142.052v-.023c-.012-.15-.027-.369-.28-.369h-.639v2.112c.004.301.124.322.315.326h.093v.155h-.017zm.843-.138h.056c.144 0 .296-.02.296-.228v-2.095c0-.209-.152-.228-.296-.228h-.056v-.12c.243 0 .66.015.996.015.336 0 .752-.016 1.024-.016-.007.172-.003.437.008.613l-.12.032c-.02-.26-.067-.468-.488-.468h-.555v1.047h.475c.24 0 .292-.135.316-.352h.12a9.152 9.152 0 000 .924l-.12.024c-.024-.24-.035-.395-.312-.395h-.479v.931c0 .26.231.26.487.26.48 0 .692-.032.812-.487l.112.027a9.04 9.04 0 00-.136.637c-.256 0-.716-.016-1.075-.016-.361 0-.837.016-1.065.016v-.12z" fill="#1A1919"></path>
      <path fill-rule="evenodd" clip-rule="evenodd" d="M16.431 26.796c-.257 0-.717-.017-1.076-.017-.36 0-.835.017-1.064.017h-.017v-.155h.073c.145-.002.277-.015.279-.21v-2.096c-.002-.196-.134-.209-.279-.211h-.073v-.155h.017c.244 0 .66.015.996.015.336 0 .751-.015 1.024-.015h.017v.018a6.365 6.365 0 00.008.61v.015l-.013.004-.14.036-.001-.02c-.024-.26-.059-.449-.47-.453h-.54v1.014h.459c.23-.003.272-.12.3-.336v-.016h.154v.018a9.486 9.486 0 000 .923v.014l-.015.004-.139.027v-.019c-.029-.244-.03-.378-.296-.38h-.463v.914c0 .243.21.242.471.243.482-.002.675-.026.795-.475l.004-.016.017.003.128.033-.003.017a9.11 9.11 0 00-.136.635l-.003.014h-.014zm-.014-.034c.035-.202.08-.404.13-.606l-.08-.02c-.119.448-.351.488-.823.485-.252 0-.504 0-.506-.278v-.949h.498c.28-.003.307.166.327.393l.087-.017a8.502 8.502 0 010-.894h-.087c-.022.21-.087.355-.331.352h-.494v-1.082h.574c.416-.004.485.212.503.463l.086-.023a6.796 6.796 0 01-.007-.582c-.272.002-.678.016-1.007.016-.328 0-.733-.014-.978-.016v.085h.039c.142 0 .313.025.313.247v2.095c0 .221-.17.245-.313.246h-.039v.085c.233 0 .696-.016 1.047-.016.353 0 .803.015 1.061.016zm.69-2.352c0-.292-.16-.304-.284-.304h-.072v-.12c.128 0 .376.016.62.016.24 0 .432-.016.644-.016.503 0 .952.136.952.705 0 .36-.24.58-.556.704l.684 1.023c.112.17.191.217.388.24v.12c-.132 0-.26-.015-.392-.015-.124 0-.253.016-.376.016a11.07 11.07 0 01-.832-1.297h-.264v.857c0 .308.144.32.327.32h.073v.12c-.229 0-.46-.016-.688-.016-.192 0-.38.016-.58.016v-.12h.072c.148 0 .284-.068.284-.216V24.41zm.512.928h.196c.4 0 .616-.152.616-.624 0-.356-.228-.584-.585-.584-.12 0-.171.013-.227.017v1.19z" fill="#1A1919"></path>
      <path fill-rule="evenodd" clip-rule="evenodd" d="M19.483 26.796c-.134 0-.261-.016-.393-.016-.122 0-.25.016-.389.01-.307-.404-.57-.833-.828-1.29h-.237v.838c.005.301.125.299.31.303h.09v.155h-.018c-.228 0-.46-.016-.687-.016-.191 0-.38.016-.58.016h-.018v-.155h.09c.144 0 .265-.064.266-.198V24.41c-.003-.284-.142-.282-.266-.286h-.09v-.155h.018c.13 0 .376.015.62.015.239 0 .43-.015.644-.015.504.001.968.14.97.721 0 .361-.24.587-.547.712l.671 1.007c.112.166.182.207.376.232l.015.002v.153h-.017zm-1.863-1.33h.273l.005.009c.26.46.523.891.818 1.287.122 0 .25-.016.375-.016.127 0 .251.014.375.016v-.088c-.187-.023-.275-.08-.385-.245l-.696-1.041.02-.009c.313-.123.545-.337.545-.688 0-.555-.431-.684-.934-.687-.211 0-.403.017-.644.017-.235 0-.473-.015-.604-.017v.085h.056c.124 0 .3.021.3.322v2.033c0 .16-.15.233-.3.233h-.056v.085c.193 0 .375-.016.563-.016.224 0 .45.015.67.016v-.085h-.054c-.182 0-.345-.022-.345-.338v-.873h.018zm0-.11h-.02V24.13h.016c.055-.005.108-.016.23-.016.364 0 .6.236.601.601 0 .478-.23.64-.633.64h-.196zm.195-.035c.396-.004.595-.141.6-.606-.003-.35-.22-.566-.569-.568-.108 0-.159.01-.21.015v1.159h.179zm4.384.669l.007-.008v-1.5c0-.328-.227-.376-.348-.376h-.087v-.12c.188 0 .371.016.56.016.164 0 .327-.016.492-.016v.12h-.06c-.168 0-.356.032-.356.508v1.82c0 .14.004.28.024.405h-.152l-2.06-2.297v1.649c0 .348.068.467.376.467h.068v.12c-.172 0-.344-.015-.516-.015-.18 0-.364.016-.544.016v-.12h.055c.276 0 .36-.189.36-.508v-1.685a.359.359 0 00-.363-.36h-.052v-.12c.151 0 .308.016.46.016.119 0 .235-.016.356-.016l1.78 2.004z" fill="#1A1919"></path>
      <path fill-rule="evenodd" clip-rule="evenodd" d="M22.43 26.856l-.164-.006-2.03-2.262v1.602c.004.349.057.447.359.451h.085v.155h-.018c-.173 0-.345-.017-.516-.017-.178 0-.363.017-.544.017h-.017v-.155h.073c.264 0 .34-.171.343-.49v-1.685a.341.341 0 00-.346-.342h-.07v-.155h.017c.153 0 .31.015.46.015.118 0 .234-.015.368-.01l1.759 1.98v-1.471c-.001-.318-.214-.357-.33-.36h-.106v-.154h.017c.19 0 .374.015.56.015.164 0 .328-.015.492-.015h.018v.155h-.077c-.165.004-.335.019-.34.49v1.82c0 .14.004.28.025.402l.002.02h-.02zm-.15-.035h.13a2.727 2.727 0 01-.02-.386v-1.82c0-.48.202-.524.374-.525h.042v-.086c-.158.002-.316.016-.475.016-.183 0-.362-.014-.543-.016v.085h.071c.123.002.366.055.366.394l-.006 1.513-.007.007-.013.014-1.78-2.013c-.119 0-.235.016-.355.016-.149 0-.298-.014-.444-.016v.085h.035a.377.377 0 01.381.378v1.684c0 .321-.09.526-.377.526h-.039v.085c.173-.001.351-.016.527-.016.168 0 .334.015.5.016v-.085h-.052c-.314 0-.393-.137-.394-.486V24.5l2.079 2.323zm1.186-.614c-.04.135-.088.24-.088.311 0 .12.168.14.3.14h.044v.12a7.17 7.17 0 00-.917 0v-.12h.025c.156 0 .288-.092.348-.26l.64-1.835c.052-.149.124-.348.148-.497a2.03 2.03 0 00.364-.172c.013-.004.02-.008.032-.008s.02 0 .028.013l.036.1.737 2.092c.048.14.095.287.146.408.05.112.133.16.266.16h.024v.12a11.278 11.278 0 00-1.153 0v-.12h.044c.092 0 .249-.016.249-.116 0-.052-.037-.16-.081-.289l-.156-.463h-.908l-.128.416zm.584-1.773h-.008l-.372 1.133h.748l-.368-1.133z" fill="#1A1919"></path>
      <path fill-rule="evenodd" clip-rule="evenodd" d="M25.597 26.796c-.18-.008-.36-.017-.55-.017-.196 0-.396.01-.6.017h-.018v-.156h.061c.093 0 .23-.02.23-.097a1.196 1.196 0 00-.078-.283l-.153-.452h-.882l-.124.404c-.04.136-.09.242-.089.307.002.097.151.121.284.121h.061v.157l-.018-.001c-.16-.008-.323-.017-.483-.017-.143 0-.287.01-.43.017h-.02v-.156h.042c.149 0 .273-.085.33-.247l.642-1.836c.051-.148.124-.348.158-.507.126-.043.287-.124.364-.172.01-.004.022-.009.038-.009a.05.05 0 01.044.023c.012.033.024.069.037.1l.736 2.093c.047.14.095.288.147.406.047.107.12.15.249.15h.04v.156l-.018-.001zm-1.133-.035c.198-.007.392-.015.584-.015.185 0 .36.008.533.015v-.084h-.006c-.137.001-.231-.053-.28-.17-.052-.122-.1-.27-.148-.41l-.737-2.093-.034-.096c-.004-.004-.003-.004-.006-.004h-.007c-.008 0-.013.003-.023.005a1.48 1.48 0 01-.357.16c-.024.152-.096.352-.148.5l-.64 1.836a.381.381 0 01-.364.272h-.007v.084c.137-.007.276-.015.415-.015.154 0 .312.008.465.015v-.084h-.025c-.131-.002-.313-.016-.318-.158 0-.079.05-.181.089-.316l.017.005-.017-.006.132-.427h.932l.16.475c.046.128.082.235.082.293-.006.123-.174.132-.265.134h-.027v.084zm-.818-1.177l.383-1.167h.021v.018h-.004.004v-.018h.012l.38 1.167h-.796zm.048-.035h.7l-.348-1.072-.352 1.072zm2.08-1.363c-.3 0-.312.073-.372.364h-.12c.015-.112.036-.224.048-.34.016-.112.024-.224.024-.34h.096c.032.12.132.116.24.116h2.064c.108 0 .208-.004.216-.124l.095.017c-.014.107-.03.215-.043.324-.009.108-.009.215-.009.323l-.12.045c-.006-.148-.026-.385-.295-.385h-.656v2.129c0 .308.14.343.332.343h.076v.12c-.156 0-.435-.015-.652-.015-.24 0-.52.016-.676.016v-.12h.076c.22 0 .332-.02.332-.336v-2.137h-.656z" fill="#1A1919"></path>
      <path fill-rule="evenodd" clip-rule="evenodd" d="M27.35 26.796c-.157 0-.437-.016-.652-.016-.24 0-.52.016-.676.016h-.018v-.155h.094c.22-.005.31-.008.314-.318v-2.12h-.638v-.034h.673v2.154c0 .321-.13.353-.349.354h-.059v.085c.158-.002.427-.017.659-.017.209 0 .477.015.635.017v-.085h-.06c-.192-.001-.348-.048-.348-.362v-2.146h.673c.269 0 .304.229.312.377l.086-.031c0-.105.001-.21.01-.314.01-.103.025-.206.04-.308l-.06-.01c-.02.116-.132.123-.232.12H25.67c-.094.002-.196-.004-.232-.116h-.066c0 .111-.008.219-.024.325-.011.11-.03.216-.046.322h.086c.053-.28.088-.37.387-.365v.034c-.296.006-.29.056-.355.352l-.003.013h-.154l.002-.02c.017-.112.037-.225.048-.34.016-.112.024-.223.024-.337v-.018h.127l.003.012c.028.101.101.102.203.104h2.085c.111-.002.192-.003.199-.108v-.019l.02.004.113.017-.003.018a8.299 8.299 0 00-.044.322c-.008.108-.008.215-.008.323v.012l-.012.005-.141.052v-.023c-.011-.15-.027-.369-.28-.369h-.639v2.112c.004.301.124.322.315.326h.093v.155h-.017zm.864-.138h.056c.144 0 .295-.02.295-.228v-2.095c0-.209-.151-.228-.295-.228h-.056v-.12c.156 0 .395.015.591.015.2 0 .44-.016.63-.016v.12h-.057c-.145 0-.297.02-.297.229v2.095c0 .209.152.228.297.228h.056v.12c-.192 0-.432-.015-.632-.015-.197 0-.432.016-.588.016v-.12z" fill="#1A1919"></path>
      <path fill-rule="evenodd" clip-rule="evenodd" d="M29.434 26.796c-.193 0-.433-.017-.632-.017-.196 0-.432.017-.588.017h-.018v-.155h.074c.144-.002.277-.015.278-.21v-2.096c-.001-.196-.134-.209-.278-.211h-.074v-.155h.017c.157 0 .397.015.592.015.2 0 .44-.015.629-.015h.017v.155h-.073c-.146.002-.278.015-.28.21v2.096c.002.196.134.209.28.211h.073v.155h-.017zm-.018-.034v-.085h-.037c-.144 0-.314-.025-.314-.246v-2.095c0-.222.17-.246.314-.246h.037v-.086c-.184.002-.416.016-.61.016-.19 0-.42-.014-.574-.016v.085h.038c.143 0 .313.025.313.247v2.095c0 .221-.17.246-.313.246h-.038v.085c.154-.002.38-.016.57-.016.195 0 .426.015.614.016zm1.614-2.836c.852 0 1.532.529 1.532 1.381 0 .92-.66 1.532-1.512 1.532-.849 0-1.497-.576-1.497-1.437 0-.831.644-1.476 1.476-1.476zm.06 2.737c.776 0 .911-.685.911-1.268 0-.585-.315-1.293-.98-1.293-.7 0-.908.625-.908 1.16 0 .716.329 1.4.977 1.4z" fill="#1A1919"></path>
      <path fill-rule="evenodd" clip-rule="evenodd" d="M29.536 25.402a1.475 1.475 0 011.493-1.493v.035a1.44 1.44 0 00-1.46 1.458c.002.85.64 1.418 1.48 1.419.844 0 1.495-.603 1.496-1.515-.001-.841-.67-1.361-1.516-1.362v-.035c.859 0 1.548.535 1.55 1.397-.001.93-.67 1.548-1.53 1.55-.855-.002-1.512-.584-1.513-1.454zm.56-.14c.001-.538.211-1.177.925-1.177.68.001.996.722.998 1.31-.002.583-.139 1.284-.93 1.284v-.034c.761 0 .893-.667.895-1.25 0-.58-.312-1.274-.963-1.275-.686 0-.889.61-.89 1.142 0 .713.325 1.382.959 1.383v.034c-.664 0-.993-.697-.994-1.417zm5.161.728l.009-.008v-1.5c0-.328-.23-.376-.35-.376h-.086v-.12c.187 0 .372.016.559.016.164 0 .328-.016.493-.016v.12h-.06c-.168 0-.357.032-.357.508v1.82c0 .14.004.28.025.405h-.153l-2.06-2.297v1.649c0 .348.068.467.376.467h.068v.12c-.172 0-.344-.015-.516-.015-.18 0-.364.016-.544.016v-.12h.056c.277 0 .36-.189.36-.508v-1.685a.358.358 0 00-.364-.36h-.052v-.12c.152 0 .308.016.46.016.12 0 .235-.016.356-.016l1.78 2.004z" fill="#1A1919"></path>
      <path fill-rule="evenodd" clip-rule="evenodd" d="M35.49 26.856l-.166-.006-2.03-2.262v1.603c.005.348.058.446.358.45h.086v.155h-.017c-.173 0-.345-.016-.516-.016-.18 0-.363.016-.545.016h-.016v-.156h.073c.264 0 .34-.17.343-.489v-1.685a.341.341 0 00-.347-.342h-.069v-.155h.016c.154 0 .31.015.46.015.12 0 .235-.015.37-.009l1.758 1.979v-1.471c-.002-.318-.215-.357-.331-.36h-.106v-.154h.019c.188 0 .372.015.559.015.163 0 .326-.015.493-.015h.017v.155h-.078c-.165.004-.335.02-.338.49v1.82c0 .14.003.28.022.402l.004.02h-.02zm-.152-.035h.131a2.827 2.827 0 01-.02-.386v-1.82c0-.48.201-.524.373-.525h.043v-.086c-.159.002-.316.016-.476.016-.182 0-.36-.014-.542-.016v.085h.07c.124.002.365.056.365.394l-.004 1.513-.008.007-.012.014-1.78-2.013c-.119 0-.235.016-.356.016-.148 0-.298-.014-.444-.016v.085h.036a.377.377 0 01.38.378v1.685c0 .32-.089.524-.376.525h-.04v.085c.174-.001.352-.016.528-.016.167 0 .333.015.498.016v-.085h-.051c-.314 0-.393-.137-.393-.485v-1.694l2.078 2.323zm1.186-.614c-.039.135-.087.24-.087.311 0 .12.168.14.3.14h.044v.12a7.125 7.125 0 00-.916 0v-.12h.023a.36.36 0 00.348-.26l.641-1.835c.052-.149.124-.348.147-.497.129-.044.288-.123.365-.172.012-.004.02-.008.032-.008s.02 0 .028.013l.036.1.736 2.092c.047.14.096.287.148.408.048.112.132.16.264.16h.024v.12a11.284 11.284 0 00-1.152 0v-.12h.044c.091 0 .248-.016.248-.116 0-.052-.036-.16-.08-.289l-.156-.463h-.908l-.129.416zm.585-1.773h-.008l-.373 1.133h.75l-.369-1.133z" fill="#1A1919"></path>
      <path fill-rule="evenodd" clip-rule="evenodd" d="M38.656 26.796c-.18-.007-.36-.016-.551-.016-.195 0-.396.009-.6.016h-.017v-.155h.06c.093 0 .231-.021.231-.098a1.242 1.242 0 00-.08-.283l-.151-.452h-.884l-.123.404c-.04.137-.087.242-.087.306 0 .098.15.123.282.123h.061v.156l-.018-.001c-.16-.007-.323-.016-.483-.016-.143 0-.286.009-.43.016h-.018v-.155h.04c.15 0 .274-.086.332-.248l.64-1.836c.051-.148.124-.348.159-.507a2.15 2.15 0 00.364-.172c.01-.004.021-.009.038-.009.01 0 .031.002.044.024.012.031.023.068.036.1l.736 2.092c.048.14.096.288.148.407.047.106.12.148.247.15h.042v.155l-.018-.001zm-1.134-.035c.198-.007.393-.015.584-.015.185 0 .36.008.534.015v-.084h-.007c-.136 0-.23-.053-.28-.17-.053-.122-.1-.27-.148-.41l-.736-2.093a4.153 4.153 0 01-.034-.095c-.003-.005-.003-.005-.006-.005h-.007c-.009 0-.013.003-.023.006a1.549 1.549 0 01-.356.16c-.025.151-.098.35-.15.5l-.64 1.835a.38.38 0 01-.364.272h-.006v.084c.137-.007.275-.015.414-.015.155 0 .313.008.467.015v-.084h-.027c-.13-.002-.313-.015-.318-.158.001-.079.05-.181.09-.316l.016.005-.016-.006.131-.427h.933l.16.475c.045.128.081.235.081.293-.006.123-.174.132-.265.134h-.027v.084zm-.818-1.177l.384-1.167h.021v.018h-.004.004v-.018h.012l.378 1.167h-.795zm.048-.035h.7l-.348-1.071-.352 1.071zm2.913.837c0 .161.111.209.24.225.163.012.343.012.528-.008a.57.57 0 00.384-.217c.063-.087.1-.2.124-.287h.115c-.044.228-.1.452-.148.68-.35 0-.704-.016-1.055-.016-.353 0-.705.016-1.056.016v-.12h.055c.144 0 .3-.02.3-.268v-2.056c0-.209-.156-.229-.3-.229h-.055v-.12c.211 0 .42.016.631.016.205 0 .404-.016.609-.016v.12h-.1c-.153 0-.272.005-.272.217v2.063z" fill="#1A1919"></path>
      <path fill-rule="evenodd" clip-rule="evenodd" d="M40.909 26.796c-.353 0-.706-.016-1.056-.016-.352 0-.704.016-1.057.016h-.017v-.155h.073c.145-.003.282-.013.284-.25v-2.057c-.002-.195-.139-.208-.284-.21h-.073v-.155h.017c.213 0 .421.015.632.015.204 0 .403-.015.609-.015h.016v.155h-.117c-.155.004-.251-.003-.255.199v2.063c.001.15.1.19.225.208a3.274 3.274 0 00.524-.008.56.56 0 00.373-.21.9.9 0 00.12-.282l.004-.013h.15l-.003.021c-.045.23-.1.452-.149.68l-.003.014h-.013zm-.014-.034c.046-.217.098-.43.141-.646h-.082a.906.906 0 01-.123.282.594.594 0 01-.396.223 3.069 3.069 0 01-.532.007c-.13-.014-.256-.07-.256-.24v-2.065c0-.222.14-.233.29-.233h.083v-.086c-.198.002-.392.017-.591.017-.207 0-.41-.015-.614-.017v.085h.038c.142 0 .317.025.317.246v2.056c0 .26-.174.286-.317.286h-.038v.085c.345 0 .691-.016 1.038-.016.348 0 .695.015 1.042.016zm.113-2.889c.241 0 .421.185.421.422s-.18.42-.421.42a.413.413 0 01-.422-.42c0-.237.18-.422.422-.422zm0 .764a.34.34 0 00.333-.342.34.34 0 00-.333-.343.34.34 0 00-.334.343.34.34 0 00.334.342zm-.21-.12v-.02c.052-.008.061-.006.061-.038v-.312c0-.044-.004-.06-.06-.057v-.021h.217c.074 0 .142.035.142.112 0 .062-.041.109-.1.127l.07.096a.449.449 0 00.092.1v.013h-.082c-.039 0-.074-.083-.151-.194h-.047v.14c0 .028.01.026.062.034v.02h-.204zm.142-.222h.05c.054 0 .08-.041.08-.108s-.04-.09-.083-.09h-.047v.198z" fill="#1A1919"></path>
      <path fill-rule="evenodd" clip-rule="evenodd" d="M16.023 9.864a6.775 6.775 0 1113.55 0 6.775 6.775 0 01-13.55 0z" fill="#FFFFFE"></path>
      <path fill-rule="evenodd" clip-rule="evenodd" d="M26.895 9.73a4.076 4.076 0 00-2.616-3.8v7.6a4.076 4.076 0 002.616-3.8zm-5.53 3.8v-7.6a4.08 4.08 0 00-2.615 3.8 4.078 4.078 0 002.614 3.8zm1.457-10.224a6.425 6.425 0 000 12.847 6.424 6.424 0 000-12.847zm-.015 13.454c-3.883.018-7.078-3.127-7.078-6.956 0-4.185 3.195-7.08 7.078-7.078h1.82c3.836-.001 7.337 2.892 7.337 7.078 0 3.827-3.501 6.956-7.338 6.956h-1.82z" fill="#184977"></path>
    </g>
    <defs>
      <clipPath id="clip0">
        <path fill="#fff" d="M0 0h48v29.981H0z"></path>
      </clipPath>
    </defs>
  </symbol>
  <symbol viewBox="0 0 46 48" xmlns="http://www.w3.org/2000/svg" id="institutions-milano">
    <g fill="none">
      <path fill="#D90912" d="M13.474 19.221H32.02v5.131H13.474v-5.13z"></path>
      <path fill="#D90912" d="M20.2 10.325h5.202v23.563l-2.606.907-2.596-.907V10.325z"></path>
      <path d="M9.505 7.893a3.627 3.627 0 0 1-.248 3.84c-.295.446-.66.842-1.082 1.174a7.317 7.317 0 0 0-1.903 2.304 13.4 13.4 0 0 1 .822-2.464c.429-.9.928-1.768 1.492-2.592a.885.885 0 0 0 .065-.555h-.119c-.33.28-.621.603-.865.96a14.537 14.537 0 0 0-1.179 1.813c-.36.755-.65 1.54-.865 2.347v.117c-.065-.661-.389-1.226-.476-1.888A5.918 5.918 0 0 1 7.44 9.205a4.693 4.693 0 0 0 1.47-1.642.261.261 0 0 1 .239-.096c.15.1.273.235.356.394v.032zM4.704 10.56c.076.117 0 .245 0 .384a5.907 5.907 0 0 0 .184 3.83c.235.91.257 1.862.065 2.783h-.076a3.586 3.586 0 0 1-.26-.49 7.096 7.096 0 0 1-1.08-2.944c-.066-.47.075-.928 0-1.376a.213.213 0 0 0-.077-.107c-.15 0-.173.16-.248.245-.563 1.622.184 3.2.962 4.523.203.34.373.696.508 1.067a6.324 6.324 0 0 1 .617 3.317 2.53 2.53 0 0 1-.14.63 2.576 2.576 0 0 0-.942-1.195l-.194-.075a6.872 6.872 0 0 0-.335-1.6c-.292-1.141-1.017-2.037-1.406-3.147v-.096a5.108 5.108 0 0 1-.292-2.762 4.342 4.342 0 0 1 2.033-2.88c.194-.064.508-.299.681 0v-.107zm5.429 2.39a4.716 4.716 0 0 1-.736 4.117c-.605.96-1.654 1.514-2.422 2.346-.416.366-.78.786-1.081 1.248v-.245a5.469 5.469 0 0 0-.206-1.067c.093-.106.176-.22.249-.341.778-1.067 1.968-1.643 2.638-2.73a3.81 3.81 0 0 0 .693-1.515c0-.086 0-.192-.087-.246-.086-.053-.27.203-.378.32a8.02 8.02 0 0 1-2.163 2.486c-.47.392-.881.848-1.222 1.354h-.011v-.501a7.017 7.017 0 0 1 3.05-4.448 3.13 3.13 0 0 0 .962-1.301s.076-.118.151-.107c.303 0 .39.373.509.619l.054.01zm-8.295 4.01a.57.57 0 0 1 .098.31c.087.895.32 1.77.692 2.591.033.05.059.104.075.16.495.801.932 1.635 1.309 2.496.097.214.151.438.227.662.148.438.24.893.27 1.354A15.18 15.18 0 0 1 2.476 22.4a5.723 5.723 0 0 1-.843-2.197 6.322 6.322 0 0 0-.14-.726.407.407 0 0 0-.152-.17c-.162 0-.151.245-.206.373-.054.682.03 1.367.25 2.016.075.128.097.288.172.427.436.93 1.08 1.75 1.882 2.4A8.81 8.81 0 0 1 4.8 26.112a8.625 8.625 0 0 0-.584 1.43 16.64 16.64 0 0 0-.594-.918 21.837 21.837 0 0 0-2.163-2.41A5.841 5.841 0 0 1 0 20.362a4.745 4.745 0 0 1 1.352-3.296c.108-.139.335-.267.486-.128v.021zm7.895 1.717c.151.182 0 .406 0 .598-.379.949-.152 2.133-.53 3.072A13.02 13.02 0 0 1 7.04 25.92c-.065.16-.206.288-.281.47a5.723 5.723 0 0 0-.736 2.485 1.956 1.956 0 0 0-1.081-.843v-.16a9.343 9.343 0 0 1 1.644-3.115 7.817 7.817 0 0 0 1.849-3.797c0-.16 0-.341-.108-.427-.108-.085-.27.278-.335.438-.17.492-.38.97-.628 1.429-.248.352-.443.736-.713 1.067-.433.629-1.006 1.194-1.428 1.845a7.118 7.118 0 0 1 2.704-5.792 6.47 6.47 0 0 1 1.276-.843c.151 0 .335-.106.486 0h.044zM1.417 25.12a7.495 7.495 0 0 0 2.563 2.976 7.393 7.393 0 0 1 2.238 2.912h-.14a8.22 8.22 0 0 1-4.12-3.275c-.109-.149-.174-.33-.38-.373-.205-.043-.075.235-.064.341.296.95.905 1.776 1.73 2.347 1.082.907 2.52 1.237 3.644 2.133a5.978 5.978 0 0 1 1.785 1.91l-.022.042a2.532 2.532 0 0 0-.605-.213 1.6 1.6 0 0 0-.876 0 6.772 6.772 0 0 0-1.763-1.323 6.523 6.523 0 0 0-.952-.48 8.898 8.898 0 0 1-1.87-1.066 5.042 5.042 0 0 1-1.947-5.056c.034-.363.17-.71.39-1.003a.219.219 0 0 1 .216 0c.077.052.14.121.183.203l-.01-.075zm8.11 0a6.048 6.048 0 0 1-.454 4.672 5.273 5.273 0 0 0-.616 2.784 1.862 1.862 0 0 1-.314-.277c-.249-.203-.508-.427-.79-.619a1.94 1.94 0 0 0 .076-.33c.062-.315.156-.622.281-.918.038-.143.089-.282.152-.416.205-.501.486-.97.681-1.483a3.51 3.51 0 0 0 .335-2.005.172.172 0 0 0-.075-.075c-.13 0-.163.128-.228.203-.162.611-.38 1.208-.648 1.781a9.001 9.001 0 0 0-1.082 2.507v-.075a5.405 5.405 0 0 1-.27-1.557 4.73 4.73 0 0 1 1.146-2.997c.445-.572.762-1.23.93-1.931a.29.29 0 0 1 .173-.15c.4.086.563.545.692.875l.011.011zm-5.785 7.413a8.675 8.675 0 0 0 2.855 1.696 8.82 8.82 0 0 1 1.08.48c.096.036.187.082.271.139.503.31.974.667 1.406 1.067.1.099.19.206.27.32-.324 0-.67-.096-1.005-.107-.08.009-.16.009-.238 0a6.104 6.104 0 0 1-3.33-1.525c-.13-.075-.25-.203-.423-.16-.173.042 0 .298.109.437a5.517 5.517 0 0 0 3.622 1.877c.766.078 1.523.228 2.26.448.065 0 0 .107.065.16.133.428.307.842.52 1.238a.175.175 0 0 1-.174 0c-1-.34-2.033-.584-3.082-.726a8.811 8.811 0 0 1-1.265-.341 5.796 5.796 0 0 1-2.898-2.453 4.996 4.996 0 0 1-.638-2.016c0-.256 0-.587.184-.726.184-.138.302.107.41.214v-.022zm6.878-2.88c.073.273.123.551.15.832.206.854.78 1.568.93 2.432.293 1.291.347 2.667.704 3.926.202.689.516 1.34.93 1.93a2.89 2.89 0 0 0-.963-.16 1.74 1.74 0 0 0-.368.075 9 9 0 0 1-1.189-4.683A15.2 15.2 0 0 0 10.446 32a.638.638 0 0 0-.194-.32c-.163 0-.141.15-.206.235.013.81.082 1.62.206 2.421.075.608 0 1.248.13 1.845a.193.193 0 0 1-.076-.085 2.417 2.417 0 0 1-.314-.384 5.12 5.12 0 0 1-.908-3.51c.07-.484.194-.96.367-1.418 0 0 0-.085.065-.139.178-.374.428-.711.736-.992.097-.064.302-.117.367 0zm-1.342 9.11a8.464 8.464 0 0 0 2.671.469c.98.09 1.92.42 2.736.96-1.46-.107-3.017.267-4.325-.277-.12 0-.27-.118-.39 0-.118.117 0 0 0 .085.168.199.384.353.628.448a6.978 6.978 0 0 0 2.941.32 9.115 9.115 0 0 1 4.228.843 8.89 8.89 0 0 0-1.806.565 9.358 9.358 0 0 0-2.433-.245 4.166 4.166 0 0 1-.432 0c-.336 0-.66-.064-.995-.075a6.452 6.452 0 0 1-.984-.245 4.854 4.854 0 0 1-2.92-2.603.832.832 0 0 1 0-.544.259.259 0 0 1 .14-.117 5.45 5.45 0 0 1 1.082.426l-.14-.01zm4.142-4.053a4.307 4.307 0 0 1 2.8 2.442 9.622 9.622 0 0 0 3.126 3.904c.08.033.157.076.227.128 0 0-.119.064-.205.064a3.248 3.248 0 0 1-3.147-1.952c-.379-.683-.67-1.408-1.081-2.059a3.064 3.064 0 0 0-.909-1.013.119.119 0 0 0-.108.075c.02.194.086.38.195.544.703.981.94 2.24 1.72 3.2a3.644 3.644 0 0 1-2.337-2.208 17.635 17.635 0 0 0-.973-2.859v-.267c0-.064.443-.074.66 0h.032zm22.969-.022v-.544a.272.272 0 0 0 .249-.096c.454-.576.151-1.45.508-2.048a.487.487 0 0 1 .443-.299c.265.109.475.316.584.576a.34.34 0 0 0 .249.299c.422-.224.508-.725.649-1.13.08-.33.199-.65.357-.95a.864.864 0 0 1 .475-.416h.13a.554.554 0 0 1 .325.533.3.3 0 0 0 .14.171c.26 0 .4-.203.563-.341a2.356 2.356 0 0 1 1.427-1.291.511.511 0 0 1 .508.213c.292.534 0 1.067-.205 1.59a.474.474 0 0 0 0 .405c.151 0 .335 0 .508.064.122.048.205.16.216.288-.065.576-.605.917-1.027 1.195a2.667 2.667 0 0 0-.952.725.958.958 0 0 0 0 .16c.065.085.163.064.25.107a.454.454 0 0 1 .41.288c0 .341-.303.512-.508.682a8.31 8.31 0 0 1-1.514.544 1.624 1.624 0 0 0-.67.438v.181c0 .053.421.064.605.16s.4.16.422.384c0 .395-.465.576-.8.704h-.152a2.09 2.09 0 0 1-.41.085 2.74 2.74 0 0 1-.801 0 1.477 1.477 0 0 0-.216-1.514l-.238-.182a34.56 34.56 0 0 0 1.59-1.461s.064-.064.097-.107l.865-.949c.13-.128.216-.277.324-.395.108-.117.335-.458.508-.704a.147.147 0 0 1 0-.085c.197-.262.34-.56.422-.875v-.117a.098.098 0 0 0-.108 0 1.39 1.39 0 0 0-.476.448 29.07 29.07 0 0 1-4.174 4.096l-.27.064c-.163.028-.322.07-.476.128a1.4 1.4 0 0 1 0-.885v-.16l.173.021zm2.541-15.563c.303-.117.865.363.898-.213.032-.576-.703-1.152-.92-1.77a1.17 1.17 0 0 1-.118-.758.364.364 0 0 1 .162-.203c.108-.085.41 0 .476 0a.438.438 0 0 0 .335 0 .201.201 0 0 0 .086-.202 4.251 4.251 0 0 0-.519-.907c-.162-.352-.4-.779-.183-1.173a.205.205 0 0 1 .15-.107.548.548 0 0 1 .38 0c.15.064.356.181.53-.096.291-.459 0-1.067.064-1.632a.937.937 0 0 1 .487-.779.47.47 0 0 1 .357.054c.562.341.627 1.066 1.081 1.504a.412.412 0 0 0 .249.138c.194-.106.313-.341.562-.362a.379.379 0 0 1 .335.213c.368.853-.162 1.707-.097 2.592a.393.393 0 0 0 .162.299c.12 0 .206 0 .292-.096a.662.662 0 0 1 .552-.288.343.343 0 0 1 .227.234c.119.8-.454 1.398-.725 2.08 0 .139-.086.32 0 .438a.252.252 0 0 0 .281 0 .547.547 0 0 1 .563 0c.205.192.108.533 0 .757-.078.18-.176.352-.292.512a1.181 1.181 0 0 0-1.233.075 2.43 2.43 0 0 0-.898 1.898 1.691 1.691 0 0 0-.508-.181c.097-.565.152-1.163.249-1.739a.063.063 0 0 1 0-.074c0-.502.076-1.067.086-1.579a16.966 16.966 0 0 0-.28-3.328c-.12-.277-.12-.64-.423-.8-.108 0-.108.117-.14.203.007.357.043.714.108 1.066.131 1.367.11 2.745-.065 4.107-.065.31-.076.661-.151.981-.184 1.206-.433 2.368-.682 3.552a1.355 1.355 0 0 0-.53-.149v-.341a5.503 5.503 0 0 0-.735-2.379 2.333 2.333 0 0 1-.335-1.216.438.438 0 0 1 .249-.352l-.087.021z" fill="#007859"></path>
      <path d="M40.963 25.035v-.086c.01-.24-.015-.481-.075-.714.108 0 .248.16.389.074a.255.255 0 0 0 .097-.181 1.053 1.053 0 0 0 0-.544 3.848 3.848 0 0 1-.281-1.259.543.543 0 0 1 .324-.544c.346 0 .509.224.736.416h.249c.248-.262.397-.601.421-.96a1.99 1.99 0 0 1 .757-1.269.525.525 0 0 1 .508 0c.358.361.525.865.455 1.365a.926.926 0 0 0 0 .224.455.455 0 0 0 .151.395c.184.064.26-.139.411-.139h.27c.098 0 .25.246.292.416a4.123 4.123 0 0 1-.973 2.134c0 .117-.108.277 0 .394.108.118.357 0 .508 0a.416.416 0 0 1 .206 0 .39.39 0 0 1 .14.395c-.062.25-.193.48-.378.661-.11.14-.23.271-.357.395a1.47 1.47 0 0 1-.151.107c-.26.309-.692.49-.768.917a.16.16 0 0 0 .097.139c.216 0 .422-.075.67 0 .146.017.278.09.368.202.152.395-.227.694-.486.918-.28.195-.581.36-.898.49a1.165 1.165 0 0 0-1.081-.405 1.72 1.72 0 0 0-.822.352.919.919 0 0 0-.379-.501c.336-.459.682-.95.963-1.408.162-.214.292-.491.443-.704.184-.416.422-.79.584-1.227.065-.224.184-.448.249-.693a4.632 4.632 0 0 0 .13-1.995.276.276 0 0 0-.109-.203c-.14 0-.173.171-.227.267-.108.352-.151.725-.292 1.067a12.985 12.985 0 0 1-1.384 2.933.818.818 0 0 0-.638-.555 1.02 1.02 0 0 0-.335 0c0-.096.065-.16.065-.256.074-.191.122-.392.14-.597l.011-.021zM35.437 9.803a.877.877 0 0 1 .509 0 .318.318 0 0 0 .173 0c.28-.075.324-.438.248-.63-.151-.437-.681-.853-.681-1.344a.515.515 0 0 1 .357-.362c.638-.246 1.352.597 1.838.917.206.117.4.299.67.245.271-.053.195-.394.422-.469a.564.564 0 0 1 .52.299c.308.608.485 1.272.519 1.952v.778c-.144.233-.243.49-.292.758a4.045 4.045 0 0 0 0 1.173 1.677 1.677 0 0 0-.379 0 9.685 9.685 0 0 0-1.438-3.52c-.151-.17-.314-.427-.552-.437a.137.137 0 0 0 0 .16.497.497 0 0 0 .076.234c0 .075.065.128.076.214a13.122 13.122 0 0 1 1.32 3.584c0 .117-.12.17-.163.288a3.34 3.34 0 0 0-.097.501c-.411-.597-1.482-.693-1.893-1.301a.486.486 0 0 1-.097-.48c.119-.214.41-.128.616-.192a.192.192 0 0 0 .108-.16c-.108-.331-.443-.534-.724-.704a2.202 2.202 0 0 1-1.19-1.163.297.297 0 0 1 .12-.341h-.066zm.152 3.594c.13-.085.292 0 .443 0l.173.064c.662.46 1.364.86 2.098 1.195a.305.305 0 0 0 .26-.085c.062.28.176.548.335.789.03.03.052.067.065.107a.949.949 0 0 0-.628.501v.096a2.942 2.942 0 0 0-1.08-.907s-.142 0-.142.086c0 .33.292.576.455.821.524.752.908 1.59 1.135 2.475a1.078 1.078 0 0 0-.39.32 1.77 1.77 0 0 0 0 1.621c.13.299.347.565.455.875.207.492.348 1.008.422 1.536a4.388 4.388 0 0 0 0 .672v.074c0 .011 0-.085-.065-.117-.314-1.067-1.925-2.08-2.606-2.87a2.042 2.042 0 0 1-.563-1.578.356.356 0 0 1 .336-.245c.162 0 .356.064.53 0a.26.26 0 0 0 .205-.128c.065-.267-.119-.491-.249-.683-.13-.192-.476-.47-.724-.736v-.064c-.249-.288-.541-.523-.433-.95.097-.18.303-.16.476-.191a.29.29 0 0 0 .14-.16c0-.512-.378-.854-.583-1.259a1.572 1.572 0 0 1-.238-.939.576.576 0 0 1 .205-.298l-.032-.022z" fill="#007859"></path>
      <path d="M35.286 29.205a4.29 4.29 0 0 1 .086-.586c.065-.203.141-.438.379-.502.238-.064.573.566.833.15a1.421 1.421 0 0 0 0-.896c-.087-.31-.26-.587-.336-.918a2.531 2.531 0 0 1-.227-.928.593.593 0 0 1 .184-.458c.152-.16.335 0 .508-.064s.109-.064.152-.107c.108-.555-.27-.981-.195-1.536a.934.934 0 0 1 .39-.79.786.786 0 0 1 .93.214c.228.297.42.619.573.96.216.48.335.917.908.523.173-.118.314-.31.562-.31.147.037.26.153.292.299.077.355.055.724-.065 1.067-.08.22-.135.45-.162.682a1.053 1.053 0 0 0 0 .48s.065.118.13.128c.065.011.249-.117.378-.138a.558.558 0 0 1 .465 0 .392.392 0 0 1 .141.341c-.065.65-.681 1.067-.952 1.59a.38.38 0 0 0 0 .255c.025.043.07.071.12.075.077-.014.153-.035.226-.064.184 0 .4 0 .498.192.119.341-.152.619-.357.853a.947.947 0 0 0-.854-.33c-.887.213-1.168 1.141-1.406 2.069a1.075 1.075 0 0 0-.346-.33c.62-1.778.73-3.691.313-5.526a1.768 1.768 0 0 0-.4-.97.152.152 0 0 0-.13.074 1.463 1.463 0 0 0 0 .555 12.98 12.98 0 0 1-.389 5.674.917.917 0 0 0-.519.16 1.97 1.97 0 0 0-.649 1.707c.001.179-.043.355-.13.512-.4-1.067-.951-1.205-1.34-1.003a4.9 4.9 0 0 0 .4-3.125l-.011.021zm-4.834 6.528c.184-.213.454-.49.735-.341.282.15.098.555.368.715.27.16.454-.363.552-.64.115-.486.264-.963.443-1.43.13-.234.26-.501.595-.405.335.096.205.64.562.597.357-.042.703-1.397 1.395-1.248.346.075.67.672.681 1.451-.07.495-.07.998 0 1.493a.196.196 0 0 1 .065.118c-.194.17-.41.33-.616.49a1.067 1.067 0 0 0-.292-.416 2.23 2.23 0 0 0-.303-.202c.189-.378.281-.795.27-1.216a.142.142 0 0 0-.162 0c-.26.192-.422.768-.692 1.226a2.547 2.547 0 0 0-1.622 1.547v-.085a.893.893 0 0 0-.865-.31c-.876.171-1.32 1.067-1.817 1.814-.13-.352-.39-.406-.724-.523.767-.917.93-1.91 1.535-2.581l-.108-.054z" fill="#007859"></path>
      <path d="M27.413 40.277a5.12 5.12 0 0 1 1.212-1.376.493.493 0 0 1 .4 0c.173.096.194.534.465.512.27-.021.886-.693 1.146-1.066.2-.355.528-.622.92-.747a.327.327 0 0 1 .334.128c.14.224 0 .587.195.768.227 0 .368-.16.497-.299.13-.138.27-.437.422-.608a.573.573 0 0 1 .108-.213c.236-.42.621-.74 1.082-.896a.337.337 0 0 1 .378.17.738.738 0 0 1 .076.363v.086a.18.18 0 0 0 .108.17c.17.034.348.003.497-.085.639-.235.985-.843 1.655-1.003.286-.095.6-.068.865.075a.77.77 0 0 1 .152.81v.086c-.163.427-.465.8-.65 1.205v.16a.433.433 0 0 0 .098.342c.07.038.141.07.216.096a.61.61 0 0 1 .346.298.575.575 0 0 1-.335.544c-.714.438-1.676.278-2.433.63-.205.064-.497.17-.54.405-.044.235 0 .16.107.203.109.042.336.181.346.352.011.17-.292.437-.53.533l-.205.064c-1.146.256-2.4-.117-3.558.085a3.628 3.628 0 0 0-.854.203c-.097 0-.151-.064-.249-.075a9.163 9.163 0 0 0-1.384-.437l.898-.16h.151c.227-.096.465-.075.67-.181.206-.107.163-.064.25-.064.345-.128.702-.224 1.08-.342.38-.117.595-.234.898-.341h.12c.02 0 .118-.075.205-.075.112-.059.228-.112.346-.16.462-.203.914-.43 1.351-.682.146-.065.287-.14.422-.224a5.39 5.39 0 0 0 1.6-1.323s.066-.139 0-.192c-.064-.053-.259 0-.378 0-.59.392-1.204.748-1.838 1.067l-1.006.469-.27.096c-.336.16-.692.277-1.082.405l-.757.224-.486.15c-1.082.298-2.51.65-3.374.81-.292.054-.595.118-.887.16a3.399 3.399 0 0 0 1.157-1.066l.043-.054z" fill="#007859"></path>
      <path d="M20.838 41.461a6.45 6.45 0 0 0 1.958-1.066 7.07 7.07 0 0 0 2.238 1.205 9.879 9.879 0 0 1-2.249 1.621c-.065 0-.076 0-.13-.064a9.05 9.05 0 0 1-1.849-1.312 1.892 1.892 0 0 1-.26-.245c.098 0 .206-.064.303-.117l-.01-.022z" fill="#D90912"></path>
      <path d="M16.22 42.87c.066 0 .163 0 .228-.086a22.255 22.255 0 0 1 2.26-.565c.379-.096.757-.192 1.082-.31.227.239.473.46.735.662a6.038 6.038 0 0 1-.887.288c-.973.309-2.033.437-2.995.768a4.218 4.218 0 0 0-1.806 1.066 2.38 2.38 0 0 0-.53.8c-.206-.288-.346-.597-.562-.864a4.82 4.82 0 0 1 2.476-1.76zm8.047.213c.2.09.406.169.616.234.615.211 1.244.382 1.882.512.162 0 .313.075.486.086.422.096.876.181 1.265.309.076 0 .184 0 .25.107a3.108 3.108 0 0 1 1.902 1.632v.096c-.227.33-.41.629-.627.96-.065 0 0-.16-.065-.235-.28-1.216-1.611-1.675-2.703-1.941a17.35 17.35 0 0 1-3.958-1.174c.3-.162.589-.344.865-.544l.087-.042z" fill="#007859"></path>
      <path d="M25.672 41.888c1.006.341 2.163.448 3.136.779a6.592 6.592 0 0 1 2.39 1.28c.194.19.355.41.476.65a2.71 2.71 0 0 0-.227.32c-.108.16-.216.363-.335.523v-.075a3.211 3.211 0 0 0-.909-1.066s-.065 0-.108-.075a12.375 12.375 0 0 0-3.914-1.205 12.15 12.15 0 0 1-1.309-.438c.249-.224.52-.448.757-.693h.043zm-10.24 3.147a5.59 5.59 0 0 1 2.66-1.067h.173c.065 0 .194 0 .303-.064.292-.075.605-.117.886-.203.567-.15 1.123-.336 1.666-.554.277.21.566.406.865.586a18.706 18.706 0 0 1-4.228 1.238 4.619 4.619 0 0 0-1.893.96 2.26 2.26 0 0 0-.573 1.152c-.195-.31-.39-.64-.584-.928.147-.413.4-.78.735-1.067l-.01-.053z" fill="#D90912"></path>
      <path d="M20.082 37.461a3.28 3.28 0 0 0-1.33-.33 28.033 28.033 0 0 0 2.8 3.285c.263-.117.508-.271.725-.459a25.7 25.7 0 0 1-2.163-2.485l-.032-.01z" fill="#007859"></path>
      <path d="M17.778 36.875a2.241 2.241 0 0 0-1.233-.288 31.971 31.971 0 0 0 3.493 4.469c.292-.09.578-.201.855-.33a29.79 29.79 0 0 1-3.115-3.851z" fill="#D90912"></path>
      <path d="M25.52 37.461a3.28 3.28 0 0 1 1.331-.33 28.108 28.108 0 0 1-2.8 3.285 2.947 2.947 0 0 1-.725-.459 25.7 25.7 0 0 0 2.162-2.485l.033-.01z" fill="#007859"></path>
      <path d="M27.824 36.875a2.241 2.241 0 0 1 1.233-.288 31.875 31.875 0 0 1-3.493 4.469 6.706 6.706 0 0 1-.854-.33 29.8 29.8 0 0 0 3.114-3.851z" fill="#D90912"></path>
      <path d="M22.796 35.563a2.441 2.441 0 0 0-.692-.512 15.316 15.316 0 0 0-4.477-1.003c-2.693-.212-4.767-2.434-4.758-5.099V9.75h19.843v19.2c.009 2.665-2.065 4.887-4.758 5.099a15.316 15.316 0 0 0-4.477 1.003c-.26.128-.494.302-.692.512h.01zm0-1.067a13.339 13.339 0 0 1 5.05-1.27c2.283-.14 4.06-2.01 4.055-4.266V10.539h-18.21V28.97c-.005 2.256 1.772 4.125 4.055 4.266 1.752.088 3.469.52 5.05 1.27v-.011zM15.15 1.664h.811v1.621h-.81V1.664zM21.66 0h.811v.832h.66V0h.8v1.621h-2.27V0zm-5.039 2.699V.832h.8v1.621l.811 1.227v2.528h-.81V3.915l-.801-1.216zm2.26-1.035h.66v.79h-1.46V.831h.8v.832z" fill="#1D1D1B"></path>
      <path fill="#1D1D1B" d="M20.276 7.659h-5.774V4.747L13.69 3.53V1.664h.812v1.621l.8 1.227v2.347h4.974v.8zm9.365-5.995h.8v1.621h-.8V1.664zm-.66 1.035V.832h-.81v1.621l-.8 1.227v2.528h.8V3.915l.81-1.216zM26.71 1.664h-.66v.79h1.472V.831h-.812v.832z"></path>
      <path d="M14.502 9.099v-.8h6.488v-1.44a1.86 1.86 0 0 1 1.865-1.705 1.86 1.86 0 0 1 1.866 1.705v1.44h6.488v.8h-7.245v-2.24c0-.59-.484-1.067-1.082-1.067-.597 0-1.081.478-1.081 1.067v2.24h-7.3z" fill="#1D1D1B"></path>
      <path fill="#1D1D1B" d="M25.326 7.659h5.775V4.747l.811-1.216V1.664h-.811v1.621l-.8 1.227v2.347h-4.975v.8zm-3.59-3.062V2.741l-.735-1.066V0h-.811v1.867l.735 1.066v2.251a2.54 2.54 0 0 1 .811-.587zm2.12 0V2.741l.735-1.066V0h.811v1.867l-.735 1.066v2.251a2.518 2.518 0 0 0-.811-.587z"></path>
    </g>
  </symbol>
  <symbol  viewBox="0 0 60 40" xmlns="http://www.w3.org/2000/svg" id="pagopa-logo">
     <g  stroke="none" stroke-width="1" fill="none" fill-rule="evenodd">
        <g id="header/light/singolo" transform="translate(-32.000000, -20.000000)" fill="#0066CC">
            <g id="logos/pagoPA" transform="translate(32.000000, 20.000000)">
                <path d="M56.7998053,0.0155671065 C58.9283295,0.0155671065 59.99111,0.605624417 59.99111,1.78509929 L59.99111,1.78509929 L60,16.1469279 C60,29.3203252 49.3997121,40 36.322496,40 C28.7422742,40 21.8609771,36.4084766 17.5275167,30.8205251 L17.5275167,30.8205251 L15.1782237,32.7079835 L14.8495047,22.1613754 L22.2197528,27.1607624 L20.3839641,28.5688391 C24.0525781,33.3020925 29.8994581,36.3449287 36.322496,36.3449287 C47.3958598,36.3449287 56.342181,27.3211249 56.342181,16.16676 L56.342181,16.16676 L56.342181,11.8128749 L53.5727288,11.8128749 L53.5727288,17.0212448 L49.9070781,17.0212448 L49.9070781,1.78509929 C49.9070781,0.605624417 50.981712,0.0155671065 53.1343663,0.0155671065 L53.1343663,0.0155671065 Z M5.67987469,5.14908703 C7.51270003,5.14908703 8.4345102,5.73893109 8.44340022,6.91861922 L8.44340022,6.91861922 L8.44340022,15.2465947 C8.44340022,16.4245768 7.55185844,17.0144209 5.77300821,17.0144209 L5.77300821,17.0144209 L3.0846245,17.0144209 L3.08610617,17.1611355 L3.07277115,22.2195922 L0,22.2195922 L0,5.14908703 Z M27.7184404,5.14908703 L27.7184404,20.4502732 C27.7184404,21.6297481 26.822242,22.2195922 25.0330201,22.2195922 L25.0330201,22.2195922 L21.9634239,22.2195922 C20.1727203,22.2195922 19.2780036,21.6297481 19.2780036,20.4502732 L19.2780036,20.4502732 L19.2780036,18.6809543 L22.3478114,18.6809543 L22.3478114,20.2415034 L24.650326,20.2415034 L24.650326,17.1398107 L24.6443993,17.0144209 L21.9469139,17.0144209 C20.1680637,17.0144209 19.2780036,16.4245768 19.2780036,15.2465947 L19.2780036,15.2465947 L19.2780036,6.91861922 C19.2871052,5.73893109 20.2072221,5.14908703 22.0398357,5.14908703 L22.0398357,5.14908703 L27.7184404,5.14908703 Z M15.2524342,5.14915101 C17.0355177,5.14915101 17.9287529,5.7404878 17.9391245,6.91846995 L17.9391245,6.91846995 L17.9243078,17.0159776 L12.0761578,17.0159776 C10.357421,17.0159776 9.49741766,16.4231481 9.49741766,15.2345035 L9.49741766,15.2345035 L9.51392769,11.76837 C9.51392769,10.6023297 10.4039878,10.0126989 12.182838,9.99905105 L12.182838,9.99905105 L14.8695284,9.99286685 L14.8695284,7.12723977 L12.5670138,7.12723977 L12.5549488,8.70292949 L9.54229108,8.70911369 L9.54229108,6.92913235 C9.54229108,5.7630921 10.4429346,5.18092496 12.2427398,5.18092496 L12.2427398,5.18092496 Z M34.5436669,5.14910836 C36.3237871,5.14910836 37.2138473,5.73895242 37.2138473,6.91693456 L37.2138473,6.91693456 L37.2138473,15.2481088 C37.2034756,16.4260909 36.2848404,17.015935 34.4520151,17.015935 L34.4520151,17.015935 L31.4755525,17.015935 C29.6725722,17.015935 28.7721404,16.4260909 28.7721404,15.2481088 L28.7721404,15.2481088 L28.7721404,6.91693456 C28.7721404,5.73895242 29.6725722,5.14910836 31.4755525,5.14910836 L31.4755525,5.14910836 Z M45.3738041,0 C47.5624418,0 48.6612057,0.589204318 48.6745407,1.76462748 L48.6745407,1.76462748 L48.6745407,10.0631747 C48.6745407,11.2371052 47.6119719,11.8246035 45.4834476,11.8246035 L45.4834476,11.8246035 L42.2741512,11.8246035 L42.2576412,17.0114354 L38.5892388,17.0114354 L38.5892388,0 Z M5.37380408,7.1271758 L3.07277115,7.1271758 L3.07277115,15.0378249 L5.37380408,15.0378249 L5.37380408,7.1271758 Z M14.8695284,11.987589 L12.5670138,11.987589 L12.5670138,15.0378888 L14.8860384,15.0378888 L14.8695284,11.987589 Z M24.650326,7.1271758 L22.3478114,7.1271758 L22.3478114,15.0378249 L24.650326,15.0378249 L24.650326,7.1271758 Z M34.1609728,7.12719712 L31.8417365,7.12719712 L31.8417365,15.0378462 L34.1442511,15.0378462 L34.1609728,7.12719712 Z M45.0046567,1.97105158 L42.2546778,1.97105158 L42.2546778,9.85355191 L45.0046567,9.85355191 L45.0046567,1.97105158 Z M56.342181,1.99216313 L53.5727288,1.99216313 L53.5727288,9.83478609 L56.342181,9.83478609 L56.342181,1.99216313 Z" id="Combined-Shape"></path>
            </g>
        </g>
    </g>
</symbol>
</svg>